g Cloud004
v -3.383464 -1.292876 4.640028
v -2.579439 1.181656 3.031979
v -0.7815862 -1.292876 3.031979
v -3.383464 -1.292876 4.640028
v -5.488427 0.2364686 3.031979
v -2.579439 1.181656 3.031979
v -3.383464 -1.292876 4.640028
v -5.488426 -2.822222 3.031979
v -5.488427 0.2364686 3.031979
v -3.383464 -1.292876 4.640028
v -2.579439 -3.767409 3.031979
v -5.488426 -2.822222 3.031979
v -3.383464 -1.292876 4.640028
v -0.7815862 -1.292876 3.031979
v -2.579439 -3.767409 3.031979
v -0.7815862 -1.292876 3.031979
v -1.278501 0.2364687 0.4301018
v -1.278501 -2.822222 0.4301018
v -2.579439 1.181656 3.031979
v -4.187488 1.181656 0.4301018
v -1.278501 0.2364687 0.4301018
v -5.488427 0.2364686 3.031979
v -5.985341 -1.292877 0.4301018
v -4.187488 1.181656 0.4301018
v -5.488426 -2.822222 3.031979
v -4.187487 -3.767409 0.4301018
v -5.985341 -1.292877 0.4301018
v -2.579439 -3.767409 3.031979
v -1.278501 -2.822222 0.4301018
v -4.187487 -3.767409 0.4301018
v -1.278501 0.2364687 0.4301018
v -0.7815862 -1.292876 3.031979
v -2.579439 1.181656 3.031979
v -4.187488 1.181656 0.4301018
v -2.579439 1.181656 3.031979
v -5.488427 0.2364686 3.031979
v -5.985341 -1.292877 0.4301018
v -5.488427 0.2364686 3.031979
v -5.488426 -2.822222 3.031979
v -4.187487 -3.767409 0.4301018
v -5.488426 -2.822222 3.031979
v -2.579439 -3.767409 3.031979
v -1.278501 -2.822222 0.4301018
v -2.579439 -3.767409 3.031979
v -0.7815862 -1.292876 3.031979
v -3.383464 -1.292876 -1.177947
v -1.278501 0.2364687 0.4301018
v -4.187488 1.181656 0.4301018
v -3.383464 -1.292876 -1.177947
v -4.187488 1.181656 0.4301018
v -5.985341 -1.292877 0.4301018
v -3.383464 -1.292876 -1.177947
v -5.985341 -1.292877 0.4301018
v -4.187487 -3.767409 0.4301018
v -3.383464 -1.292876 -1.177947
v -4.187487 -3.767409 0.4301018
v -1.278501 -2.822222 0.4301018
v -3.383464 -1.292876 -1.177947
v -1.278501 -2.822222 0.4301018
v -1.278501 0.2364687 0.4301018
v 2.576509 -1.47674 2.652522
v 2.871091 2.513572 2.37131
v 4.71631 0.1722845 -0.3123434
v 2.576509 -1.47674 2.652522
v -0.6506164 0.8215592 3.278572
v 2.871091 2.513572 2.37131
v 2.576509 -1.47674 2.652522
v -0.9819324 -2.56545 1.155638
v -0.6506164 0.8215592 3.278572
v 2.576509 -1.47674 2.652522
v 2.33501 -2.966724 -1.06367
v -0.9819324 -2.56545 1.155638
v 2.576509 -1.47674 2.652522
v 4.71631 0.1722845 -0.3123434
v 2.33501 -2.966724 -1.06367
v 4.71631 0.1722845 -0.3123434
v 2.811654 3.489737 -1.51868
v 2.480338 0.1027279 -3.641614
v 2.871091 2.513572 2.37131
v -0.5052881 3.891011 0.700628
v 2.811654 3.489737 -1.51868
v -0.6506164 0.8215592 3.278572
v -2.886587 0.7520025 -0.05069864
v -0.5052881 3.891011 0.700628
v -0.9819324 -2.56545 1.155638
v -1.041368 -1.589285 -2.734353
v -2.886587 0.7520025 -0.05069864
v 2.33501 -2.966724 -1.06367
v 2.480338 0.1027279 -3.641614
v -1.041368 -1.589285 -2.734353
v 2.811654 3.489737 -1.51868
v 4.71631 0.1722845 -0.3123434
v 2.871091 2.513572 2.37131
v -0.5052881 3.891011 0.700628
v 2.871091 2.513572 2.37131
v -0.6506164 0.8215592 3.278572
v -2.886587 0.7520025 -0.05069864
v -0.6506164 0.8215592 3.278572
v -0.9819324 -2.56545 1.155638
v -1.041368 -1.589285 -2.734353
v -0.9819324 -2.56545 1.155638
v 2.33501 -2.966724 -1.06367
v 2.480338 0.1027279 -3.641614
v 2.33501 -2.966724 -1.06367
v 4.71631 0.1722845 -0.3123434
v -0.7467868 2.401027 -3.015563
v 2.811654 3.489737 -1.51868
v -0.5052881 3.891011 0.700628
v -0.7467868 2.401027 -3.015563
v -0.5052881 3.891011 0.700628
v -2.886587 0.7520025 -0.05069864
v -0.7467868 2.401027 -3.015563
v -2.886587 0.7520025 -0.05069864
v -1.041368 -1.589285 -2.734353
v -0.7467868 2.401027 -3.015563
v -1.041368 -1.589285 -2.734353
v 2.480338 0.1027279 -3.641614
v -0.7467868 2.401027 -3.015563
v 2.480338 0.1027279 -3.641614
v 2.811654 3.489737 -1.51868
v -2.784867 -5.046757 -0.8030858
v -1.041991 -3.078591 0.3484287
v -0.1526413 -4.656003 -1.878253
v -2.784867 -5.046757 -0.8030858
v -3.821894 -2.481102 -0.04198647
v -1.041991 -3.078591 0.3484287
v -2.784867 -5.046757 -0.8030858
v -4.65062 -3.689246 -2.509958
v -3.821894 -2.481102 -0.04198647
v -2.784867 -5.046757 -0.8030858
v -2.382897 -5.033409 -3.644833
v -4.65062 -3.689246 -2.509958
v -2.784867 -5.046757 -0.8030858
v -0.1526413 -4.656003 -1.878253
v -2.382897 -5.033409 -3.644833
v -0.1526413 -4.656003 -1.878253
v 0.4371364 -1.84885 -1.781642
v -0.3915896 -3.056994 -4.249614
v -1.041991 -3.078591 0.3484287
v -1.830586 -0.5046868 -0.6467679
v 0.4371364 -1.84885 -1.781642
v -3.821894 -2.481102 -0.04198647
v -4.060842 -0.8820926 -2.413348
v -1.830586 -0.5046868 -0.6467679
v -4.65062 -3.689246 -2.509958
v -3.171492 -2.459506 -4.640029
v -4.060842 -0.8820926 -2.413348
v -2.382897 -5.033409 -3.644833
v -0.3915896 -3.056994 -4.249614
v -3.171492 -2.459506 -4.640029
v 0.4371364 -1.84885 -1.781642
v -0.1526413 -4.656003 -1.878253
v -1.041991 -3.078591 0.3484287
v -1.830586 -0.5046868 -0.6467679
v -1.041991 -3.078591 0.3484287
v -3.821894 -2.481102 -0.04198647
v -4.060842 -0.8820926 -2.413348
v -3.821894 -2.481102 -0.04198647
v -4.65062 -3.689246 -2.509958
v -3.171492 -2.459506 -4.640029
v -4.65062 -3.689246 -2.509958
v -2.382897 -5.033409 -3.644833
v -0.3915896 -3.056994 -4.249614
v -2.382897 -5.033409 -3.644833
v -0.1526413 -4.656003 -1.878253
v -1.428617 -0.4913394 -3.488514
v 0.4371364 -1.84885 -1.781642
v -1.830586 -0.5046868 -0.6467679
v -1.428617 -0.4913394 -3.488514
v -1.830586 -0.5046868 -0.6467679
v -4.060842 -0.8820926 -2.413348
v -1.428617 -0.4913394 -3.488514
v -4.060842 -0.8820926 -2.413348
v -3.171492 -2.459506 -4.640029
v -1.428617 -0.4913394 -3.488514
v -3.171492 -2.459506 -4.640029
v -0.3915896 -3.056994 -4.249614
v -1.428617 -0.4913394 -3.488514
v -0.3915896 -3.056994 -4.249614
v 0.4371364 -1.84885 -1.781642
v 5.038235 2.606662 2.677539
v 4.8808 4.69686 2.243619
v 5.985341 3.412355 0.9351707
v 5.038235 2.606662 2.677539
v 3.169547 3.616777 2.941497
v 4.8808 4.69686 2.243619
v 5.038235 2.606662 2.677539
v 3.216477 1.664745 2.064362
v 3.169547 3.616777 2.941497
v 5.038235 2.606662 2.677539
v 4.956733 1.538405 0.8243841
v 3.216477 1.664745 2.064362
v 5.038235 2.606662 2.677539
v 5.985341 3.412355 0.9351707
v 4.956733 1.538405 0.8243841
v 5.985341 3.412355 0.9351707
v 4.701998 4.920416 0.1222861
v 4.748927 2.968384 -0.754849
v 4.8808 4.69686 2.243619
v 2.961742 5.046756 1.362264
v 4.701998 4.920416 0.1222861
v 3.169547 3.616777 2.941497
v 1.933133 3.172806 1.251478
v 2.961742 5.046756 1.362264
v 3.216477 1.664745 2.064362
v 3.037675 1.888301 -0.0569706
v 1.933133 3.172806 1.251478
v 4.956733 1.538405 0.8243841
v 4.748927 2.968384 -0.754849
v 3.037675 1.888301 -0.0569706
v 4.701998 4.920416 0.1222861
v 5.985341 3.412355 0.9351707
v 4.8808 4.69686 2.243619
v 2.961742 5.046756 1.362264
v 4.8808 4.69686 2.243619
v 3.169547 3.616777 2.941497
v 1.933133 3.172806 1.251478
v 3.169547 3.616777 2.941497
v 3.216477 1.664745 2.064362
v 3.037675 1.888301 -0.0569706
v 3.216477 1.664745 2.064362
v 4.956733 1.538405 0.8243841
v 4.748927 2.968384 -0.754849
v 4.956733 1.538405 0.8243841
v 5.985341 3.412355 0.9351707
v 2.88024 3.978499 -0.4908907
v 4.701998 4.920416 0.1222861
v 2.961742 5.046756 1.362264
v 2.88024 3.978499 -0.4908907
v 2.961742 5.046756 1.362264
v 1.933133 3.172806 1.251478
v 2.88024 3.978499 -0.4908907
v 1.933133 3.172806 1.251478
v 3.037675 1.888301 -0.0569706
v 2.88024 3.978499 -0.4908907
v 3.037675 1.888301 -0.0569706
v 4.748927 2.968384 -0.754849
v 2.88024 3.978499 -0.4908907
v 4.748927 2.968384 -0.754849
v 4.701998 4.920416 0.1222861
vt 0.6 1
vt 0.6999999 0.6475835
vt 0.5 0.6475835
vt 0.8 1
vt 0.9 0.6475835
vt 0.6999999 0.6475835
vt 3.72529E-08 1
vt 0.1 0.6475835
vt -0.09999996 0.6475835
vt 0.2 1
vt 0.3 0.6475835
vt 0.1 0.6475835
vt 0.4 1
vt 0.5 0.6475835
vt 0.3 0.6475835
vt 0.5 0.6475835
vt 0.6 0.3524164
vt 0.4 0.3524164
vt 0.6999999 0.6475835
vt 0.8 0.3524164
vt 0.6 0.3524164
vt -0.09999996 0.6475835
vt 3.794549E-08 0.3524164
vt -0.2 0.3524164
vt 0.1 0.6475835
vt 0.2 0.3524164
vt 3.794549E-08 0.3524164
vt 0.3 0.6475835
vt 0.4 0.3524164
vt 0.2 0.3524164
vt 0.6 0.3524164
vt 0.5 0.6475835
vt 0.6999999 0.6475835
vt 0.8 0.3524164
vt 0.6999999 0.6475835
vt 0.9 0.6475835
vt 3.794549E-08 0.3524164
vt -0.09999996 0.6475835
vt 0.1 0.6475835
vt 0.2 0.3524164
vt 0.1 0.6475835
vt 0.3 0.6475835
vt 0.4 0.3524164
vt 0.3 0.6475835
vt 0.5 0.6475835
vt 0.7 0
vt 0.6 0.3524164
vt 0.8 0.3524164
vt -0.09999997 0
vt -0.2 0.3524164
vt 3.794549E-08 0.3524164
vt 0.1 0
vt 3.794549E-08 0.3524164
vt 0.2 0.3524164
vt 0.3 0
vt 0.2 0.3524164
vt 0.4 0.3524164
vt 0.5 0
vt 0.4 0.3524164
vt 0.6 0.3524164
vt 0.6 1
vt 0.6999999 0.6475835
vt 0.5 0.6475835
vt 0.8 1
vt 0.9 0.6475835
vt 0.6999999 0.6475835
vt 3.72529E-08 1
vt 0.1 0.6475835
vt -0.09999996 0.6475835
vt 0.2 1
vt 0.3 0.6475835
vt 0.1 0.6475835
vt 0.4 1
vt 0.5 0.6475835
vt 0.3 0.6475835
vt 0.5 0.6475835
vt 0.6 0.3524164
vt 0.4 0.3524164
vt 0.6999999 0.6475835
vt 0.8 0.3524163
vt 0.6 0.3524164
vt -0.09999996 0.6475835
vt 3.794549E-08 0.3524164
vt -0.2 0.3524163
vt 0.1 0.6475835
vt 0.2000001 0.3524164
vt 3.794549E-08 0.3524164
vt 0.3 0.6475835
vt 0.4 0.3524164
vt 0.2000001 0.3524164
vt 0.6 0.3524164
vt 0.5 0.6475835
vt 0.6999999 0.6475835
vt 0.8 0.3524163
vt 0.6999999 0.6475835
vt 0.9 0.6475835
vt 3.794549E-08 0.3524164
vt -0.09999996 0.6475835
vt 0.1 0.6475835
vt 0.2000001 0.3524164
vt 0.1 0.6475835
vt 0.3 0.6475835
vt 0.4 0.3524164
vt 0.3 0.6475835
vt 0.5 0.6475835
vt 0.7 0
vt 0.6 0.3524164
vt 0.8 0.3524163
vt -0.09999997 0
vt -0.2 0.3524163
vt 3.794549E-08 0.3524164
vt 0.1000001 0
vt 3.794549E-08 0.3524164
vt 0.2000001 0.3524164
vt 0.3 0
vt 0.2000001 0.3524164
vt 0.4 0.3524164
vt 0.5 0
vt 0.4 0.3524164
vt 0.6 0.3524164
vt 0.6 1
vt 0.6999999 0.6475835
vt 0.5 0.6475835
vt 0.8 1
vt 0.9 0.6475835
vt 0.6999999 0.6475835
vt 3.72529E-08 1
vt 0.1 0.6475835
vt -0.09999996 0.6475835
vt 0.2 1
vt 0.3 0.6475835
vt 0.1 0.6475835
vt 0.4 1
vt 0.5 0.6475835
vt 0.3 0.6475835
vt 0.5 0.6475835
vt 0.6 0.3524164
vt 0.4 0.3524164
vt 0.6999999 0.6475835
vt 0.8 0.3524164
vt 0.6 0.3524164
vt -0.09999996 0.6475835
vt 3.794549E-08 0.3524164
vt -0.2 0.3524164
vt 0.1 0.6475835
vt 0.2 0.3524164
vt 3.794549E-08 0.3524164
vt 0.3 0.6475835
vt 0.4 0.3524164
vt 0.2 0.3524164
vt 0.6 0.3524164
vt 0.5 0.6475835
vt 0.6999999 0.6475835
vt 0.8 0.3524164
vt 0.6999999 0.6475835
vt 0.9 0.6475835
vt 3.794549E-08 0.3524164
vt -0.09999996 0.6475835
vt 0.1 0.6475835
vt 0.2 0.3524164
vt 0.1 0.6475835
vt 0.3 0.6475835
vt 0.4 0.3524164
vt 0.3 0.6475835
vt 0.5 0.6475835
vt 0.7 0
vt 0.6 0.3524164
vt 0.8 0.3524164
vt -0.09999997 0
vt -0.2 0.3524164
vt 3.794549E-08 0.3524164
vt 0.1 0
vt 3.794549E-08 0.3524164
vt 0.2 0.3524164
vt 0.3 0
vt 0.2 0.3524164
vt 0.4 0.3524164
vt 0.5 0
vt 0.4 0.3524164
vt 0.6 0.3524164
vt 0.6 1
vt 0.6999999 0.6475837
vt 0.5 0.6475837
vt 0.8 1
vt 0.9 0.6475837
vt 0.6999999 0.6475837
vt 3.72529E-08 1
vt 0.1 0.6475837
vt -0.09999996 0.6475837
vt 0.2 1
vt 0.3 0.6475837
vt 0.1 0.6475837
vt 0.4 1
vt 0.5 0.6475837
vt 0.3 0.6475837
vt 0.5 0.6475837
vt 0.6 0.3524164
vt 0.4 0.3524164
vt 0.6999999 0.6475837
vt 0.8 0.3524164
vt 0.6 0.3524164
vt -0.09999996 0.6475837
vt 3.794549E-08 0.3524164
vt -0.2 0.3524164
vt 0.1 0.6475837
vt 0.2 0.3524164
vt 3.794549E-08 0.3524164
vt 0.3 0.6475837
vt 0.4 0.3524164
vt 0.2 0.3524164
vt 0.6 0.3524164
vt 0.5 0.6475837
vt 0.6999999 0.6475837
vt 0.8 0.3524164
vt 0.6999999 0.6475837
vt 0.9 0.6475837
vt 3.794549E-08 0.3524164
vt -0.09999996 0.6475837
vt 0.1 0.6475837
vt 0.2 0.3524164
vt 0.1 0.6475837
vt 0.3 0.6475837
vt 0.4 0.3524164
vt 0.3 0.6475837
vt 0.5 0.6475837
vt 0.7 0
vt 0.6 0.3524164
vt 0.8 0.3524164
vt -0.09999997 0
vt -0.2 0.3524164
vt 3.794549E-08 0.3524164
vt 0.1 0
vt 3.794549E-08 0.3524164
vt 0.2 0.3524164
vt 0.3 0
vt 0.2 0.3524164
vt 0.4 0.3524164
vt 0.5 0
vt 0.4 0.3524164
vt 0.6 0.3524164
vn 0.4911235 0.3568221 0.7946544
vn 0.4911235 0.3568222 0.7946545
vn 0.4911235 0.3568221 0.7946544
vn -0.1875925 0.5773503 0.7946545
vn -0.1875925 0.5773503 0.7946545
vn -0.1875925 0.5773503 0.7946545
vn -0.607062 0 0.7946544
vn -0.607062 0 0.7946544
vn -0.607062 0 0.7946544
vn -0.1875924 -0.5773503 0.7946545
vn -0.1875924 -0.5773503 0.7946545
vn -0.1875924 -0.5773503 0.7946544
vn 0.4911235 -0.3568221 0.7946545
vn 0.4911236 -0.3568221 0.7946545
vn 0.4911236 -0.3568221 0.7946545
vn 0.9822469 0 -0.1875925
vn 0.9822469 0 -0.1875925
vn 0.9822469 0 -0.1875925
vn 0.3035309 0.9341723 -0.1875925
vn 0.3035309 0.9341723 -0.1875925
vn 0.3035309 0.9341723 -0.1875925
vn -0.7946545 0.5773501 -0.1875925
vn -0.7946545 0.5773501 -0.1875925
vn -0.7946545 0.5773501 -0.1875925
vn -0.7946543 -0.5773504 -0.1875926
vn -0.7946543 -0.5773504 -0.1875926
vn -0.7946543 -0.5773504 -0.1875926
vn 0.3035311 -0.9341723 -0.1875924
vn 0.3035311 -0.9341723 -0.1875924
vn 0.3035311 -0.9341723 -0.1875924
vn 0.7946545 0.5773503 0.1875925
vn 0.7946545 0.5773503 0.1875925
vn 0.7946545 0.5773503 0.1875925
vn -0.3035311 0.9341723 0.1875924
vn -0.3035311 0.9341723 0.1875924
vn -0.3035311 0.9341723 0.1875924
vn -0.9822469 0 0.1875925
vn -0.9822469 0 0.1875925
vn -0.9822469 0 0.1875925
vn -0.3035309 -0.9341725 0.1875924
vn -0.3035309 -0.9341725 0.1875924
vn -0.3035309 -0.9341725 0.1875924
vn 0.7946545 -0.5773503 0.1875924
vn 0.7946545 -0.5773503 0.1875924
vn 0.7946545 -0.5773503 0.1875924
vn 0.1875925 0.5773503 -0.7946545
vn 0.1875925 0.5773503 -0.7946545
vn 0.1875925 0.5773503 -0.7946545
vn -0.4911236 0.3568221 -0.7946544
vn -0.4911236 0.3568221 -0.7946544
vn -0.4911235 0.3568221 -0.7946544
vn -0.4911235 -0.3568223 -0.7946544
vn -0.4911234 -0.3568223 -0.7946544
vn -0.4911235 -0.3568223 -0.7946544
vn 0.1875925 -0.5773502 -0.7946545
vn 0.1875925 -0.5773502 -0.7946545
vn 0.1875925 -0.5773502 -0.7946545
vn 0.6070621 0 -0.7946544
vn 0.6070621 0 -0.7946544
vn 0.607062 0 -0.7946544
vn 0.8158333 -0.01949759 0.5779584
vn 0.8158333 -0.01949759 0.5779584
vn 0.8158333 -0.01949759 0.5779584
vn 0.2256831 0.05189701 0.9728175
vn 0.2256831 0.05189702 0.9728175
vn 0.2256831 0.05189702 0.9728175
vn -0.1979974 -0.5065952 0.8391414
vn -0.1979974 -0.5065952 0.8391414
vn -0.1979974 -0.5065952 0.8391414
vn 0.1303037 -0.9231569 0.361666
vn 0.1303037 -0.9231569 0.361666
vn 0.1303037 -0.9231569 0.361666
vn 0.7568855 -0.622114 0.2002461
vn 0.7568854 -0.622114 0.2002461
vn 0.7568854 -0.622114 0.2002461
vn 0.7987225 0.2615213 -0.5418938
vn 0.7987225 0.2615213 -0.5418938
vn 0.7987225 0.2615213 -0.5418938
vn 0.2675202 0.9355323 0.2306775
vn 0.2675202 0.9355323 0.2306775
vn 0.2675202 0.9355323 0.2306775
vn -0.7463105 0.4484348 0.4918606
vn -0.7463105 0.4484348 0.4918606
vn -0.7463105 0.4484348 0.4918606
vn -0.8416899 -0.5266192 -0.119291
vn -0.8416899 -0.5266191 -0.119291
vn -0.8416899 -0.5266191 -0.119291
vn 0.113193 -0.6421381 -0.758186
vn 0.113193 -0.6421381 -0.758186
vn 0.113193 -0.6421381 -0.758186
vn 0.8416899 0.5266191 0.1192907
vn 0.8416899 0.5266191 0.1192907
vn 0.8416899 0.5266192 0.1192907
vn -0.1131929 0.642138 0.7581861
vn -0.1131929 0.642138 0.7581861
vn -0.1131929 0.642138 0.7581861
vn -0.7987226 -0.2615213 0.5418937
vn -0.7987226 -0.2615213 0.5418937
vn -0.7987226 -0.2615213 0.5418937
vn -0.2675202 -0.9355323 -0.2306777
vn -0.2675202 -0.9355323 -0.2306777
vn -0.2675202 -0.9355323 -0.2306777
vn 0.7463104 -0.4484348 -0.4918607
vn 0.7463105 -0.4484349 -0.4918607
vn 0.7463105 -0.4484349 -0.4918607
vn -0.1303037 0.9231569 -0.3616661
vn -0.1303037 0.9231569 -0.3616661
vn -0.1303037 0.9231569 -0.3616661
vn -0.7568855 0.6221139 -0.2002461
vn -0.7568855 0.6221139 -0.2002461
vn -0.7568855 0.6221139 -0.2002461
vn -0.8158333 0.01949745 -0.5779584
vn -0.8158333 0.01949745 -0.5779585
vn -0.8158333 0.01949745 -0.5779585
vn -0.2256832 -0.0518969 -0.9728175
vn -0.2256832 -0.0518969 -0.9728175
vn -0.2256832 -0.0518969 -0.9728175
vn 0.1979973 0.5065951 -0.8391415
vn 0.1979973 0.5065951 -0.8391415
vn 0.1979973 0.5065951 -0.8391415
vn 0.3597104 -0.6875719 0.6307561
vn 0.3597104 -0.6875719 0.6307562
vn 0.3597104 -0.6875719 0.6307562
vn -0.2041606 -0.3533448 0.9129435
vn -0.2041606 -0.3533448 0.9129435
vn -0.2041606 -0.3533448 0.9129435
vn -0.7587155 -0.4471871 0.473682
vn -0.7587155 -0.4471871 0.473682
vn -0.7587155 -0.4471871 0.4736819
vn -0.5375782 -0.8394119 -0.07998395
vn -0.5375781 -0.8394119 -0.07998394
vn -0.5375782 -0.8394119 -0.07998395
vn 0.153647 -0.987978 0.0170933
vn 0.153647 -0.987978 0.0170933
vn 0.153647 -0.987978 0.0170933
vn 0.9548004 -0.1928161 -0.2262256
vn 0.9548004 -0.1928161 -0.2262256
vn 0.9548004 -0.1928161 -0.2262256
vn 0.5969928 0.441817 0.6696247
vn 0.5969928 0.441817 0.6696247
vn 0.5969928 0.441817 0.6696247
vn -0.5214329 0.682202 0.5125505
vn -0.5214329 0.6822021 0.5125505
vn -0.5214329 0.682202 0.5125505
vn -0.8548502 0.1961349 -0.480377
vn -0.8548502 0.1961349 -0.480377
vn -0.8548502 0.1961349 -0.480377
vn 0.05751207 -0.344656 -0.9369656
vn 0.05751207 -0.344656 -0.9369656
vn 0.05751207 -0.3446561 -0.9369656
vn 0.8548504 -0.196135 0.4803769
vn 0.8548504 -0.196135 0.4803769
vn 0.8548504 -0.196135 0.4803769
vn -0.05751186 0.344656 0.9369657
vn -0.05751186 0.344656 0.9369657
vn -0.05751186 0.344656 0.9369657
vn -0.9548005 0.1928162 0.2262255
vn -0.9548004 0.1928162 0.2262255
vn -0.9548005 0.1928162 0.2262255
vn -0.5969928 -0.441817 -0.6696247
vn -0.5969929 -0.441817 -0.6696247
vn -0.5969928 -0.441817 -0.6696247
vn 0.5214331 -0.682202 -0.5125506
vn 0.521433 -0.682202 -0.5125506
vn 0.5214331 -0.682202 -0.5125506
vn 0.5375782 0.8394119 0.07998399
vn 0.5375782 0.8394119 0.07998398
vn 0.5375782 0.8394119 0.07998398
vn -0.153647 0.987978 -0.0170932
vn -0.153647 0.987978 -0.0170932
vn -0.153647 0.987978 -0.0170932
vn -0.3597103 0.6875718 -0.6307563
vn -0.3597103 0.6875718 -0.6307563
vn -0.3597103 0.6875718 -0.6307563
vn 0.2041608 0.3533448 -0.9129435
vn 0.2041607 0.3533448 -0.9129434
vn 0.2041608 0.3533448 -0.9129435
vn 0.7587155 0.447187 -0.4736821
vn 0.7587155 0.447187 -0.473682
vn 0.7587155 0.447187 -0.473682
vn 0.829683 0.1726954 0.5308507
vn 0.829683 0.1726954 0.5308507
vn 0.829683 0.1726954 0.5308507
vn 0.2494966 0.2148161 0.9442487
vn 0.2494966 0.2148161 0.9442487
vn 0.2494966 0.2148161 0.9442487
vn -0.09343259 -0.4099426 0.9073133
vn -0.0934326 -0.4099426 0.9073133
vn -0.09343259 -0.4099426 0.9073133
vn 0.2748119 -0.8381853 0.4710882
vn 0.2748119 -0.8381851 0.4710881
vn 0.2748119 -0.8381853 0.4710882
vn 0.8453286 -0.4780949 0.2384217
vn 0.8453286 -0.4780949 0.2384217
vn 0.8453286 -0.4780949 0.2384217
vn 0.7332301 0.2932905 -0.6134772
vn 0.7332301 0.2932905 -0.6134772
vn 0.7332301 0.2932905 -0.6134773
vn 0.137398 0.9862015 0.09234935
vn 0.137398 0.9862015 0.09234935
vn 0.137398 0.9862015 0.09234936
vn -0.7857174 0.4035634 0.468812
vn -0.7857174 0.4035634 0.468812
vn -0.7857174 0.4035634 0.468812
vn -0.7604021 -0.6494381 -0.004348468
vn -0.7604021 -0.6494381 -0.004348468
vn -0.7604021 -0.6494381 -0.004348468
vn 0.178359 -0.7175905 -0.6732399
vn 0.178359 -0.7175905 -0.6732399
vn 0.178359 -0.7175905 -0.6732399
vn 0.7604022 0.6494378 0.00434804
vn 0.7604022 0.6494378 0.00434804
vn 0.7604022 0.6494378 0.00434804
vn -0.178359 0.7175905 0.6732399
vn -0.178359 0.7175905 0.6732399
vn -0.178359 0.7175904 0.6732399
vn -0.73323 -0.2932905 0.6134773
vn -0.73323 -0.2932905 0.6134773
vn -0.73323 -0.2932906 0.6134773
vn -0.137398 -0.9862015 -0.09234973
vn -0.137398 -0.9862015 -0.09234973
vn -0.137398 -0.9862015 -0.09234973
vn 0.7857175 -0.4035634 -0.468812
vn 0.7857175 -0.4035634 -0.4688119
vn 0.7857175 -0.4035634 -0.4688119
vn -0.2748117 0.8381853 -0.4710882
vn -0.2748117 0.8381853 -0.4710883
vn -0.2748117 0.8381853 -0.4710882
vn -0.8453285 0.4780951 -0.2384217
vn -0.8453284 0.4780951 -0.2384217
vn -0.8453285 0.4780951 -0.2384217
vn -0.8296828 -0.1726956 -0.5308509
vn -0.8296828 -0.1726956 -0.5308509
vn -0.8296828 -0.1726956 -0.5308509
vn -0.2494966 -0.2148161 -0.9442487
vn -0.2494966 -0.2148161 -0.9442487
vn -0.2494966 -0.2148161 -0.9442487
vn 0.09343263 0.4099426 -0.9073133
vn 0.09343264 0.4099426 -0.9073133
vn 0.09343264 0.4099426 -0.9073133
g Cloud004_0
f 3/3/3 2/2/2 1/1/1
f 6/6/6 5/5/5 4/4/4
f 9/9/9 8/8/8 7/7/7
f 12/12/12 11/11/11 10/10/10
f 15/15/15 14/14/14 13/13/13
f 18/18/18 17/17/17 16/16/16
f 21/21/21 20/20/20 19/19/19
f 24/24/24 23/23/23 22/22/22
f 27/27/27 26/26/26 25/25/25
f 30/30/30 29/29/29 28/28/28
f 33/33/33 32/32/32 31/31/31
f 36/36/36 35/35/35 34/34/34
f 39/39/39 38/38/38 37/37/37
f 42/42/42 41/41/41 40/40/40
f 45/45/45 44/44/44 43/43/43
f 48/48/48 47/47/47 46/46/46
f 51/51/51 50/50/50 49/49/49
f 54/54/54 53/53/53 52/52/52
f 57/57/57 56/56/56 55/55/55
f 60/60/60 59/59/59 58/58/58
f 63/63/63 62/62/62 61/61/61
f 66/66/66 65/65/65 64/64/64
f 69/69/69 68/68/68 67/67/67
f 72/72/72 71/71/71 70/70/70
f 75/75/75 74/74/74 73/73/73
f 78/78/78 77/77/77 76/76/76
f 81/81/81 80/80/80 79/79/79
f 84/84/84 83/83/83 82/82/82
f 87/87/87 86/86/86 85/85/85
f 90/90/90 89/89/89 88/88/88
f 93/93/93 92/92/92 91/91/91
f 96/96/96 95/95/95 94/94/94
f 99/99/99 98/98/98 97/97/97
f 102/102/102 101/101/101 100/100/100
f 105/105/105 104/104/104 103/103/103
f 108/108/108 107/107/107 106/106/106
f 111/111/111 110/110/110 109/109/109
f 114/114/114 113/113/113 112/112/112
f 117/117/117 116/116/116 115/115/115
f 120/120/120 119/119/119 118/118/118
f 123/123/123 122/122/122 121/121/121
f 126/126/126 125/125/125 124/124/124
f 129/129/129 128/128/128 127/127/127
f 132/132/132 131/131/131 130/130/130
f 135/135/135 134/134/134 133/133/133
f 138/138/138 137/137/137 136/136/136
f 141/141/141 140/140/140 139/139/139
f 144/144/144 143/143/143 142/142/142
f 147/147/147 146/146/146 145/145/145
f 150/150/150 149/149/149 148/148/148
f 153/153/153 152/152/152 151/151/151
f 156/156/156 155/155/155 154/154/154
f 159/159/159 158/158/158 157/157/157
f 162/162/162 161/161/161 160/160/160
f 165/165/165 164/164/164 163/163/163
f 168/168/168 167/167/167 166/166/166
f 171/171/171 170/170/170 169/169/169
f 174/174/174 173/173/173 172/172/172
f 177/177/177 176/176/176 175/175/175
f 180/180/180 179/179/179 178/178/178
f 183/183/183 182/182/182 181/181/181
f 186/186/186 185/185/185 184/184/184
f 189/189/189 188/188/188 187/187/187
f 192/192/192 191/191/191 190/190/190
f 195/195/195 194/194/194 193/193/193
f 198/198/198 197/197/197 196/196/196
f 201/201/201 200/200/200 199/199/199
f 204/204/204 203/203/203 202/202/202
f 207/207/207 206/206/206 205/205/205
f 210/210/210 209/209/209 208/208/208
f 213/213/213 212/212/212 211/211/211
f 216/216/216 215/215/215 214/214/214
f 219/219/219 218/218/218 217/217/217
f 222/222/222 221/221/221 220/220/220
f 225/225/225 224/224/224 223/223/223
f 228/228/228 227/227/227 226/226/226
f 231/231/231 230/230/230 229/229/229
f 234/234/234 233/233/233 232/232/232
f 237/237/237 236/236/236 235/235/235
f 240/240/240 239/239/239 238/238/238
