g Cloud005
v -0.9406916 -0.5384161 3.771534
v 0.04182726 2.485466 1.806496
v 2.238806 -0.5384161 1.806496
v -0.9406916 -0.5384161 3.771534
v -3.51296 1.330446 1.806496
v 0.04182726 2.485466 1.806496
v -0.9406916 -0.5384161 3.771534
v -3.51296 -2.407279 1.806496
v -3.51296 1.330446 1.806496
v -0.9406916 -0.5384161 3.771534
v 0.04182774 -3.562299 1.806496
v -3.51296 -2.407279 1.806496
v -0.9406916 -0.5384161 3.771534
v 2.238806 -0.5384161 1.806496
v 0.04182774 -3.562299 1.806496
v 2.238806 -0.5384161 1.806496
v 1.631576 1.330446 -1.373002
v 1.631576 -2.407279 -1.373002
v 0.04182726 2.485466 1.806496
v -1.923211 2.485466 -1.373002
v 1.631576 1.330446 -1.373002
v -3.51296 1.330446 1.806496
v -4.12019 -0.5384164 -1.373002
v -1.923211 2.485466 -1.373002
v -3.51296 -2.407279 1.806496
v -1.923209 -3.562299 -1.373002
v -4.12019 -0.5384164 -1.373002
v 0.04182774 -3.562299 1.806496
v 1.631576 -2.407279 -1.373002
v -1.923209 -3.562299 -1.373002
v 1.631576 1.330446 -1.373002
v 2.238806 -0.5384161 1.806496
v 0.04182726 2.485466 1.806496
v -1.923211 2.485466 -1.373002
v 0.04182726 2.485466 1.806496
v -3.51296 1.330446 1.806496
v -4.12019 -0.5384164 -1.373002
v -3.51296 1.330446 1.806496
v -3.51296 -2.407279 1.806496
v -1.923209 -3.562299 -1.373002
v -3.51296 -2.407279 1.806496
v 0.04182774 -3.562299 1.806496
v 1.631576 -2.407279 -1.373002
v 0.04182774 -3.562299 1.806496
v 2.238806 -0.5384161 1.806496
v -0.9406916 -0.5384161 -3.33804
v 1.631576 1.330446 -1.373002
v -1.923211 2.485466 -1.373002
v -0.9406916 -0.5384161 -3.33804
v -1.923211 2.485466 -1.373002
v -4.12019 -0.5384164 -1.373002
v -0.9406916 -0.5384161 -3.33804
v -4.12019 -0.5384164 -1.373002
v -1.923209 -3.562299 -1.373002
v -0.9406916 -0.5384161 -3.33804
v -1.923209 -3.562299 -1.373002
v 1.631576 -2.407279 -1.373002
v -0.9406916 -0.5384161 -3.33804
v 1.631576 -2.407279 -1.373002
v 1.631576 1.330446 -1.373002
v -4.145825 1.241005 3.730096
v -3.415407 2.158136 2.599519
v -2.565351 1.023844 3.401788
v -4.145825 1.241005 3.730096
v -4.910158 1.570005 2.329954
v -3.415407 2.158136 2.599519
v -4.145825 1.241005 3.730096
v -4.98391 0.07222944 2.965621
v -4.910158 1.570005 2.329954
v -4.145825 1.241005 3.730096
v -3.534739 -0.2653162 3.628051
v -4.98391 0.07222944 2.965621
v -4.145825 1.241005 3.730096
v -2.565351 1.023844 3.401788
v -3.534739 -0.2653162 3.628051
v -2.565351 1.023844 3.401788
v -2.352897 1.218631 1.798738
v -2.426649 -0.2791445 2.434406
v -3.415407 2.158136 2.599519
v -3.802067 1.556177 1.136309
v -2.352897 1.218631 1.798738
v -4.910158 1.570005 2.329954
v -4.771455 0.2670162 1.362573
v -3.802067 1.556177 1.136309
v -4.98391 0.07222944 2.965621
v -3.9214 -0.8672748 2.164841
v -4.771455 0.2670162 1.362573
v -3.534739 -0.2653162 3.628051
v -2.426649 -0.2791445 2.434406
v -3.9214 -0.8672748 2.164841
v -2.352897 1.218631 1.798738
v -2.565351 1.023844 3.401788
v -3.415407 2.158136 2.599519
v -3.802067 1.556177 1.136309
v -3.415407 2.158136 2.599519
v -4.910158 1.570005 2.329954
v -4.771455 0.2670162 1.362573
v -4.910158 1.570005 2.329954
v -4.98391 0.07222944 2.965621
v -3.9214 -0.8672748 2.164841
v -4.98391 0.07222944 2.965621
v -3.534739 -0.2653162 3.628051
v -2.426649 -0.2791445 2.434406
v -3.534739 -0.2653162 3.628051
v -2.565351 1.023844 3.401788
v -3.190981 0.04985517 1.034264
v -2.352897 1.218631 1.798738
v -3.802067 1.556177 1.136309
v -3.190981 0.04985517 1.034264
v -3.802067 1.556177 1.136309
v -4.771455 0.2670162 1.362573
v -3.190981 0.04985517 1.034264
v -4.771455 0.2670162 1.362573
v -3.9214 -0.8672748 2.164841
v -3.190981 0.04985517 1.034264
v -3.9214 -0.8672748 2.164841
v -2.426649 -0.2791445 2.434406
v -3.190981 0.04985517 1.034264
v -2.426649 -0.2791445 2.434406
v -2.352897 1.218631 1.798738
v 1.718657 3.344791 -0.07000452
v 2.502405 3.562299 -2.584706
v 4.288432 3.200046 -0.6705018
v 1.718657 3.344791 -0.07000452
v 0.3624602 2.131168 -1.986549
v 2.502405 3.562299 -2.584706
v 1.718657 3.344791 -0.07000452
v 0.8259276 0.8844275 0.2973364
v 0.3624602 2.131168 -1.986549
v 1.718657 3.344791 -0.07000452
v 3.252311 1.545031 1.110698
v 0.8259276 0.8844275 0.2973364
v 1.718657 3.344791 -0.07000452
v 4.288432 3.200046 -0.6705018
v 3.252311 1.545031 1.110698
v 4.288432 3.200046 -0.6705018
v 4.520444 1.896965 -2.958174
v 4.983911 0.6502247 -0.6742886
v 2.502405 3.562299 -2.584706
v 2.09406 1.236362 -3.771535
v 4.520444 1.896965 -2.958174
v 0.3624602 2.131168 -1.986549
v 1.05794 -0.4186535 -1.990336
v 2.09406 1.236362 -3.771535
v 0.8259276 0.8844275 0.2973364
v 2.843966 -0.7809055 -0.07613188
v 1.05794 -0.4186535 -1.990336
v 3.252311 1.545031 1.110698
v 4.983911 0.6502247 -0.6742886
v 2.843966 -0.7809055 -0.07613188
v 4.520444 1.896965 -2.958174
v 4.288432 3.200046 -0.6705018
v 2.502405 3.562299 -2.584706
v 2.09406 1.236362 -3.771535
v 2.502405 3.562299 -2.584706
v 0.3624602 2.131168 -1.986549
v 1.05794 -0.4186535 -1.990336
v 0.3624602 2.131168 -1.986549
v 0.8259276 0.8844275 0.2973364
v 2.843966 -0.7809055 -0.07613188
v 0.8259276 0.8844275 0.2973364
v 3.252311 1.545031 1.110698
v 4.983911 0.6502247 -0.6742886
v 3.252311 1.545031 1.110698
v 4.288432 3.200046 -0.6705018
v 3.627715 -0.5633988 -2.590833
v 4.520444 1.896965 -2.958174
v 2.09406 1.236362 -3.771535
v 3.627715 -0.5633988 -2.590833
v 2.09406 1.236362 -3.771535
v 1.05794 -0.4186535 -1.990336
v 3.627715 -0.5633988 -2.590833
v 1.05794 -0.4186535 -1.990336
v 2.843966 -0.7809055 -0.07613188
v 3.627715 -0.5633988 -2.590833
v 2.843966 -0.7809055 -0.07613188
v 4.983911 0.6502247 -0.6742886
v 3.627715 -0.5633988 -2.590833
v 4.983911 0.6502247 -0.6742886
v 4.520444 1.896965 -2.958174
v 3.143971 -2.14989 -1.210842
v 3.557181 -0.4367561 -0.9559966
v 3.806764 -1.184826 -2.552436
v 3.143971 -2.14989 -1.210842
v 2.057961 -1.103396 -0.2642968
v 3.557181 -0.4367561 -0.9559966
v 3.143971 -2.14989 -1.210842
v 1.380975 -2.263471 -1.433242
v 2.057961 -1.103396 -0.2642968
v 3.143971 -2.14989 -1.210842
v 2.461795 -2.313798 -2.847389
v 1.380975 -2.263471 -1.433242
v 3.143971 -2.14989 -1.210842
v 3.806764 -1.184826 -2.552436
v 2.461795 -2.313798 -2.847389
v 3.806764 -1.184826 -2.552436
v 3.130382 0.4581118 -2.435041
v 2.453396 -0.7019638 -3.603986
v 3.557181 -0.4367561 -0.9559966
v 2.049562 0.5084383 -1.020893
v 3.130382 0.4581118 -2.435041
v 2.057961 -1.103396 -0.2642968
v 0.7045931 -0.6205336 -1.315847
v 2.049562 0.5084383 -1.020893
v 1.380975 -2.263471 -1.433242
v 0.9541766 -1.368603 -2.912287
v 0.7045931 -0.6205336 -1.315847
v 2.461795 -2.313798 -2.847389
v 2.453396 -0.7019638 -3.603986
v 0.9541766 -1.368603 -2.912287
v 3.130382 0.4581118 -2.435041
v 3.806764 -1.184826 -2.552436
v 3.557181 -0.4367561 -0.9559966
v 2.049562 0.5084383 -1.020893
v 3.557181 -0.4367561 -0.9559966
v 2.057961 -1.103396 -0.2642968
v 0.7045931 -0.6205336 -1.315847
v 2.057961 -1.103396 -0.2642968
v 1.380975 -2.263471 -1.433242
v 0.9541766 -1.368603 -2.912287
v 1.380975 -2.263471 -1.433242
v 2.461795 -2.313798 -2.847389
v 2.453396 -0.7019638 -3.603986
v 2.461795 -2.313798 -2.847389
v 3.806764 -1.184826 -2.552436
v 1.367386 0.3445312 -2.657441
v 3.130382 0.4581118 -2.435041
v 2.049562 0.5084383 -1.020893
v 1.367386 0.3445312 -2.657441
v 2.049562 0.5084383 -1.020893
v 0.7045931 -0.6205336 -1.315847
v 1.367386 0.3445312 -2.657441
v 0.7045931 -0.6205336 -1.315847
v 0.9541766 -1.368603 -2.912287
v 1.367386 0.3445312 -2.657441
v 0.9541766 -1.368603 -2.912287
v 2.453396 -0.7019638 -3.603986
v 1.367386 0.3445312 -2.657441
v 2.453396 -0.7019638 -3.603986
v 3.130382 0.4581118 -2.435041
vt 0.6 1
vt 0.6999999 0.6475835
vt 0.5 0.6475837
vt 0.8 1
vt 0.9 0.6475837
vt 0.6999999 0.6475835
vt 3.72529E-08 1
vt 0.1 0.6475835
vt -0.09999996 0.6475837
vt 0.2 1
vt 0.3 0.6475837
vt 0.1 0.6475835
vt 0.4 1
vt 0.5 0.6475837
vt 0.3 0.6475837
vt 0.5 0.6475837
vt 0.6 0.3524164
vt 0.4 0.3524164
vt 0.6999999 0.6475835
vt 0.8 0.3524164
vt 0.6 0.3524164
vt -0.09999996 0.6475837
vt 3.794549E-08 0.3524164
vt -0.2 0.3524164
vt 0.1 0.6475835
vt 0.2 0.3524164
vt 3.794549E-08 0.3524164
vt 0.3 0.6475837
vt 0.4 0.3524164
vt 0.2 0.3524164
vt 0.6 0.3524164
vt 0.5 0.6475837
vt 0.6999999 0.6475835
vt 0.8 0.3524164
vt 0.6999999 0.6475835
vt 0.9 0.6475837
vt 3.794549E-08 0.3524164
vt -0.09999996 0.6475837
vt 0.1 0.6475835
vt 0.2 0.3524164
vt 0.1 0.6475835
vt 0.3 0.6475837
vt 0.4 0.3524164
vt 0.3 0.6475837
vt 0.5 0.6475837
vt 0.7 0
vt 0.6 0.3524164
vt 0.8 0.3524164
vt -0.09999997 0
vt -0.2 0.3524164
vt 3.794549E-08 0.3524164
vt 0.1 0
vt 3.794549E-08 0.3524164
vt 0.2 0.3524164
vt 0.3 0
vt 0.2 0.3524164
vt 0.4 0.3524164
vt 0.5 0
vt 0.4 0.3524164
vt 0.6 0.3524164
vt 0.6 0.99989
vt 0.6999999 0.6475835
vt 0.5 0.6475835
vt 0.8 0.99989
vt 0.9 0.6475835
vt 0.6999999 0.6475835
vt 3.72529E-08 0.99989
vt 0.1 0.6475835
vt -0.09999996 0.6475835
vt 0.2 0.99989
vt 0.3 0.6475835
vt 0.1 0.6475835
vt 0.4 0.99989
vt 0.5 0.6475835
vt 0.3 0.6475835
vt 0.5 0.6475835
vt 0.6 0.3524164
vt 0.4 0.3524164
vt 0.6999999 0.6475835
vt 0.8 0.3524164
vt 0.6 0.3524164
vt -0.09999996 0.6475835
vt 3.794549E-08 0.3524164
vt -0.2 0.3524164
vt 0.1 0.6475835
vt 0.2000001 0.3524164
vt 3.794549E-08 0.3524164
vt 0.3 0.6475835
vt 0.4 0.3524164
vt 0.2000001 0.3524164
vt 0.6 0.3524164
vt 0.5 0.6475835
vt 0.6999999 0.6475835
vt 0.8 0.3524164
vt 0.6999999 0.6475835
vt 0.9 0.6475835
vt 3.794549E-08 0.3524164
vt -0.09999996 0.6475835
vt 0.1 0.6475835
vt 0.2000001 0.3524164
vt 0.1 0.6475835
vt 0.3 0.6475835
vt 0.4 0.3524164
vt 0.3 0.6475835
vt 0.5 0.6475835
vt 0.7 0.0001099281
vt 0.6 0.3524164
vt 0.8 0.3524164
vt -0.09999997 0.0001099281
vt -0.2 0.3524164
vt 3.794549E-08 0.3524164
vt 0.1000001 0.0001099281
vt 3.794549E-08 0.3524164
vt 0.2000001 0.3524164
vt 0.3 0.0001099281
vt 0.2000001 0.3524164
vt 0.4 0.3524164
vt 0.5 0.0001099281
vt 0.4 0.3524164
vt 0.6 0.3524164
vt 0.6 1
vt 0.6999999 0.6475835
vt 0.5 0.6475835
vt 0.8 1
vt 0.9 0.6475835
vt 0.6999999 0.6475835
vt 3.72529E-08 1
vt 0.1 0.6475835
vt -0.09999996 0.6475835
vt 0.2 1
vt 0.3 0.6475835
vt 0.1 0.6475835
vt 0.4 1
vt 0.5 0.6475835
vt 0.3 0.6475835
vt 0.5 0.6475835
vt 0.6 0.3524164
vt 0.4 0.3524164
vt 0.6999999 0.6475835
vt 0.8 0.3524164
vt 0.6 0.3524164
vt -0.09999996 0.6475835
vt 3.794549E-08 0.3524164
vt -0.2 0.3524164
vt 0.1 0.6475835
vt 0.2 0.3524164
vt 3.794549E-08 0.3524164
vt 0.3 0.6475835
vt 0.4 0.3524164
vt 0.2 0.3524164
vt 0.6 0.3524164
vt 0.5 0.6475835
vt 0.6999999 0.6475835
vt 0.8 0.3524164
vt 0.6999999 0.6475835
vt 0.9 0.6475835
vt 3.794549E-08 0.3524164
vt -0.09999996 0.6475835
vt 0.1 0.6475835
vt 0.2 0.3524164
vt 0.1 0.6475835
vt 0.3 0.6475835
vt 0.4 0.3524164
vt 0.3 0.6475835
vt 0.5 0.6475835
vt 0.7 0
vt 0.6 0.3524164
vt 0.8 0.3524164
vt -0.09999997 0
vt -0.2 0.3524164
vt 3.794549E-08 0.3524164
vt 0.1 0
vt 3.794549E-08 0.3524164
vt 0.2 0.3524164
vt 0.3 0
vt 0.2 0.3524164
vt 0.4 0.3524164
vt 0.5 0
vt 0.4 0.3524164
vt 0.6 0.3524164
vt 0.6 1
vt 0.6999999 0.6475835
vt 0.5 0.6475835
vt 0.8 1
vt 0.9 0.6475835
vt 0.6999999 0.6475835
vt 3.72529E-08 1
vt 0.1 0.6475835
vt -0.09999996 0.6475835
vt 0.2 1
vt 0.3 0.6475835
vt 0.1 0.6475835
vt 0.4 1
vt 0.5 0.6475835
vt 0.3 0.6475835
vt 0.5 0.6475835
vt 0.6 0.3524164
vt 0.4 0.3524164
vt 0.6999999 0.6475835
vt 0.8 0.3524164
vt 0.6 0.3524164
vt -0.09999996 0.6475835
vt 3.794549E-08 0.3524164
vt -0.2 0.3524164
vt 0.1 0.6475835
vt 0.2 0.3524164
vt 3.794549E-08 0.3524164
vt 0.3 0.6475835
vt 0.4 0.3524164
vt 0.2 0.3524164
vt 0.6 0.3524164
vt 0.5 0.6475835
vt 0.6999999 0.6475835
vt 0.8 0.3524164
vt 0.6999999 0.6475835
vt 0.9 0.6475835
vt 3.794549E-08 0.3524164
vt -0.09999996 0.6475835
vt 0.1 0.6475835
vt 0.2 0.3524164
vt 0.1 0.6475835
vt 0.3 0.6475835
vt 0.4 0.3524164
vt 0.3 0.6475835
vt 0.5 0.6475835
vt 0.7 0
vt 0.6 0.3524164
vt 0.8 0.3524164
vt -0.09999997 0
vt -0.2 0.3524164
vt 3.794549E-08 0.3524164
vt 0.1 0
vt 3.794549E-08 0.3524164
vt 0.2 0.3524164
vt 0.3 0
vt 0.2 0.3524164
vt 0.4 0.3524164
vt 0.5 0
vt 0.4 0.3524164
vt 0.6 0.3524164
vn 0.4911235 0.3568221 0.7946545
vn 0.4911235 0.3568221 0.7946545
vn 0.4911235 0.3568221 0.7946545
vn -0.1875925 0.5773503 0.7946545
vn -0.1875925 0.5773503 0.7946545
vn -0.1875925 0.5773503 0.7946545
vn -0.607062 0 0.7946545
vn -0.607062 0 0.7946545
vn -0.607062 0 0.7946545
vn -0.1875924 -0.5773503 0.7946545
vn -0.1875924 -0.5773503 0.7946545
vn -0.1875924 -0.5773503 0.7946545
vn 0.4911235 -0.3568221 0.7946545
vn 0.4911235 -0.3568221 0.7946545
vn 0.4911235 -0.3568221 0.7946545
vn 0.9822469 0 -0.1875925
vn 0.9822469 0 -0.1875925
vn 0.9822469 0 -0.1875925
vn 0.3035309 0.9341723 -0.1875926
vn 0.3035309 0.9341723 -0.1875925
vn 0.3035309 0.9341723 -0.1875925
vn -0.7946545 0.5773502 -0.1875925
vn -0.7946545 0.5773502 -0.1875925
vn -0.7946545 0.5773502 -0.1875925
vn -0.7946543 -0.5773504 -0.1875926
vn -0.7946543 -0.5773504 -0.1875926
vn -0.7946543 -0.5773504 -0.1875926
vn 0.3035311 -0.9341723 -0.1875924
vn 0.3035311 -0.9341723 -0.1875924
vn 0.3035311 -0.9341723 -0.1875924
vn 0.7946545 0.5773503 0.1875924
vn 0.7946545 0.5773503 0.1875924
vn 0.7946545 0.5773503 0.1875924
vn -0.3035311 0.9341723 0.1875924
vn -0.303531 0.9341723 0.1875924
vn -0.303531 0.9341723 0.1875924
vn -0.9822469 0 0.1875924
vn -0.9822469 0 0.1875924
vn -0.9822469 0 0.1875924
vn -0.3035309 -0.9341725 0.1875924
vn -0.3035309 -0.9341725 0.1875924
vn -0.3035309 -0.9341725 0.1875924
vn 0.7946545 -0.5773502 0.1875924
vn 0.7946545 -0.5773502 0.1875924
vn 0.7946545 -0.5773502 0.1875924
vn 0.1875924 0.5773503 -0.7946544
vn 0.1875924 0.5773503 -0.7946544
vn 0.1875924 0.5773503 -0.7946544
vn -0.4911235 0.3568221 -0.7946544
vn -0.4911235 0.3568221 -0.7946544
vn -0.4911235 0.3568221 -0.7946544
vn -0.4911235 -0.3568223 -0.7946544
vn -0.4911234 -0.3568223 -0.7946545
vn -0.4911234 -0.3568223 -0.7946544
vn 0.1875925 -0.5773503 -0.7946545
vn 0.1875925 -0.5773503 -0.7946545
vn 0.1875925 -0.5773503 -0.7946545
vn 0.607062 0 -0.7946545
vn 0.607062 0 -0.7946545
vn 0.607062 0 -0.7946545
vn 0.2379264 0.6733806 0.6999641
vn 0.2379263 0.6733805 0.699964
vn 0.2379263 0.6733805 0.699964
vn -0.3970321 0.8212772 0.4097185
vn -0.3970321 0.8212772 0.4097185
vn -0.3970321 0.8212772 0.4097185
vn -0.8217723 0.2564276 0.5088566
vn -0.8217723 0.2564276 0.5088566
vn -0.8217723 0.2564276 0.5088566
vn -0.449318 -0.2405654 0.860373
vn -0.449318 -0.2405654 0.860373
vn -0.449318 -0.2405654 0.860373
vn 0.2056117 0.01712563 0.9784838
vn 0.2056116 0.01712563 0.9784838
vn 0.2056116 0.01712563 0.9784838
vn 0.9911889 0.00732222 0.1322535
vn 0.9911889 0.00732222 0.1322535
vn 0.9911889 0.00732222 0.1322535
vn 0.3885452 0.8114739 -0.4365121
vn 0.3885452 0.8114738 -0.4365121
vn 0.3885452 0.8114738 -0.4365121
vn -0.6711537 0.394521 -0.6276194
vn -0.6711537 0.394521 -0.6276194
vn -0.6711537 0.394521 -0.6276194
vn -0.7234396 -0.667322 -0.1769649
vn -0.7234396 -0.667322 -0.1769649
vn -0.7234396 -0.667322 -0.1769649
vn 0.3039444 -0.9066237 0.2926624
vn 0.3039444 -0.9066237 0.2926624
vn 0.3039444 -0.9066237 0.2926624
vn 0.7234398 0.6673217 0.1769649
vn 0.7234398 0.6673217 0.1769649
vn 0.7234398 0.6673217 0.1769649
vn -0.3039446 0.9066237 -0.2926624
vn -0.3039446 0.9066237 -0.2926624
vn -0.3039446 0.9066237 -0.2926624
vn -0.9911889 -0.007322286 -0.1322534
vn -0.9911889 -0.007322286 -0.1322534
vn -0.9911889 -0.007322286 -0.1322534
vn -0.3885451 -0.811474 0.4365119
vn -0.3885451 -0.811474 0.4365119
vn -0.3885451 -0.811474 0.4365119
vn 0.6711536 -0.3945211 0.6276193
vn 0.6711536 -0.3945211 0.6276193
vn 0.6711536 -0.3945211 0.6276193
vn 0.449318 0.2405655 -0.860373
vn 0.4493181 0.2405654 -0.8603729
vn 0.4493181 0.2405654 -0.8603729
vn -0.2056118 -0.01712569 -0.9784838
vn -0.2056118 -0.01712569 -0.9784838
vn -0.2056118 -0.01712569 -0.9784838
vn -0.2379264 -0.6733807 -0.6999639
vn -0.2379264 -0.6733807 -0.6999639
vn -0.2379264 -0.6733807 -0.6999639
vn 0.397032 -0.8212773 -0.4097185
vn 0.397032 -0.8212773 -0.4097185
vn 0.397032 -0.8212773 -0.4097185
vn 0.8217723 -0.2564277 -0.5088566
vn 0.8217723 -0.2564277 -0.5088566
vn 0.8217723 -0.2564277 -0.5088566
vn 0.08176035 0.9904349 0.1111489
vn 0.08176035 0.9904349 0.1111489
vn 0.08176035 0.9904349 0.1111489
vn -0.5734022 0.8120614 -0.1084718
vn -0.5734022 0.8120614 -0.1084718
vn -0.5734022 0.8120614 -0.1084718
vn -0.8531712 0.3651809 0.3724806
vn -0.8531712 0.365181 0.3724806
vn -0.8531712 0.365181 0.3724806
vn -0.3709154 0.267367 0.8893461
vn -0.3709154 0.267367 0.8893461
vn -0.3709154 0.2673671 0.8893462
vn 0.2069039 0.6537952 0.7278343
vn 0.2069039 0.6537951 0.7278343
vn 0.2069039 0.6537951 0.7278343
vn 0.963431 0.262859 -0.05201721
vn 0.963431 0.262859 -0.05201721
vn 0.963431 0.262859 -0.05201721
vn 0.1831251 0.4211252 -0.8883237
vn 0.1831251 0.4211251 -0.8883235
vn 0.1831251 0.4211252 -0.8883235
vn -0.7518062 -0.2041285 -0.6269919
vn -0.7518062 -0.2041285 -0.6269919
vn -0.7518062 -0.2041286 -0.6269919
vn -0.5493194 -0.7488231 0.370826
vn -0.5493195 -0.7488232 0.3708261
vn -0.5493194 -0.7488231 0.370826
vn 0.5107551 -0.4602086 0.7261798
vn 0.5107551 -0.4602086 0.7261798
vn 0.5107551 -0.4602086 0.7261798
vn 0.5493197 0.748823 -0.3708259
vn 0.5493198 0.748823 -0.3708259
vn 0.5493198 0.7488229 -0.3708259
vn -0.5107552 0.4602086 -0.7261798
vn -0.5107552 0.4602086 -0.7261798
vn -0.5107552 0.4602087 -0.7261798
vn -0.963431 -0.262859 0.0520175
vn -0.963431 -0.262859 0.0520175
vn -0.963431 -0.262859 0.0520175
vn -0.1831249 -0.4211253 0.8883237
vn -0.1831248 -0.4211253 0.8883237
vn -0.1831248 -0.4211253 0.8883237
vn 0.7518063 0.2041287 0.6269918
vn 0.7518064 0.2041287 0.6269918
vn 0.7518064 0.2041287 0.6269917
vn 0.3709155 -0.267367 -0.8893461
vn 0.3709155 -0.267367 -0.8893461
vn 0.3709155 -0.267367 -0.8893461
vn -0.2069038 -0.6537951 -0.7278343
vn -0.2069038 -0.6537951 -0.7278343
vn -0.2069038 -0.6537951 -0.7278343
vn -0.08176018 -0.9904349 -0.1111486
vn -0.08176018 -0.9904349 -0.1111486
vn -0.08176018 -0.9904349 -0.1111486
vn 0.5734022 -0.8120615 0.1084719
vn 0.5734022 -0.8120615 0.1084719
vn 0.5734022 -0.8120615 0.1084719
vn 0.8531713 -0.365181 -0.3724804
vn 0.8531713 -0.365181 -0.3724804
vn 0.8531713 -0.365181 -0.3724804
vn 0.9266224 -0.2634143 0.2682982
vn 0.9266224 -0.2634143 0.2682982
vn 0.9266223 -0.2634143 0.2682982
vn 0.4934409 -0.2432439 0.8350739
vn 0.4934409 -0.2432439 0.8350739
vn 0.4934409 -0.2432439 0.8350739
vn -0.04560909 -0.6957243 0.7168594
vn -0.04560909 -0.6957243 0.7168594
vn -0.04560909 -0.6957243 0.7168594
vn 0.05442126 -0.9955429 0.07702298
vn 0.05442126 -0.9955429 0.07702297
vn 0.05442126 -0.9955429 0.07702297
vn 0.6552934 -0.7283608 -0.2002032
vn 0.6552934 -0.7283608 -0.2002031
vn 0.6552934 -0.7283607 -0.2002032
vn 0.6498471 0.3169 -0.6908495
vn 0.6498471 0.3169001 -0.6908496
vn 0.6498471 0.3169 -0.6908495
vn 0.4879945 0.8020169 0.3444275
vn 0.4879945 0.8020168 0.3444275
vn 0.4879945 0.8020168 0.3444275
vn -0.4842369 0.3697069 0.792989
vn -0.4842369 0.3697068 0.792989
vn -0.4842369 0.3697069 0.792989
vn -0.9232565 -0.3825923 0.03493781
vn -0.9232565 -0.3825924 0.03493781
vn -0.9232565 -0.3825923 0.03493781
vn -0.2223539 -0.4152288 -0.8821246
vn -0.2223539 -0.4152288 -0.8821246
vn -0.2223539 -0.4152288 -0.8821246
vn 0.9232564 0.3825925 -0.03493811
vn 0.9232564 0.3825925 -0.03493812
vn 0.9232564 0.3825925 -0.03493811
vn 0.2223539 0.4152288 0.8821246
vn 0.2223539 0.4152287 0.8821246
vn 0.2223539 0.4152288 0.8821246
vn -0.6498471 -0.3169 0.6908495
vn -0.6498473 -0.3169 0.6908495
vn -0.6498471 -0.3169 0.6908495
vn -0.4879947 -0.8020167 -0.3444277
vn -0.4879946 -0.8020166 -0.3444277
vn -0.4879946 -0.8020166 -0.3444277
vn 0.4842367 -0.3697068 -0.792989
vn 0.4842368 -0.3697068 -0.7929891
vn 0.4842367 -0.3697068 -0.792989
vn -0.05442126 0.9955429 -0.07702298
vn -0.05442127 0.9955429 -0.07702298
vn -0.05442126 0.9955429 -0.07702297
vn -0.6552934 0.7283607 0.2002032
vn -0.6552935 0.7283607 0.2002032
vn -0.6552935 0.7283607 0.2002032
vn -0.9266224 0.2634142 -0.2682981
vn -0.9266224 0.2634142 -0.2682981
vn -0.9266224 0.2634142 -0.2682981
vn -0.4934408 0.243244 -0.8350739
vn -0.4934408 0.243244 -0.8350739
vn -0.4934408 0.243244 -0.8350739
vn 0.04560906 0.6957242 -0.7168595
vn 0.04560905 0.6957242 -0.7168595
vn 0.04560906 0.6957242 -0.7168595
g Cloud005_0
f 3/3/3 2/2/2 1/1/1
f 6/6/6 5/5/5 4/4/4
f 9/9/9 8/8/8 7/7/7
f 12/12/12 11/11/11 10/10/10
f 15/15/15 14/14/14 13/13/13
f 18/18/18 17/17/17 16/16/16
f 21/21/21 20/20/20 19/19/19
f 24/24/24 23/23/23 22/22/22
f 27/27/27 26/26/26 25/25/25
f 30/30/30 29/29/29 28/28/28
f 33/33/33 32/32/32 31/31/31
f 36/36/36 35/35/35 34/34/34
f 39/39/39 38/38/38 37/37/37
f 42/42/42 41/41/41 40/40/40
f 45/45/45 44/44/44 43/43/43
f 48/48/48 47/47/47 46/46/46
f 51/51/51 50/50/50 49/49/49
f 54/54/54 53/53/53 52/52/52
f 57/57/57 56/56/56 55/55/55
f 60/60/60 59/59/59 58/58/58
f 63/63/63 62/62/62 61/61/61
f 66/66/66 65/65/65 64/64/64
f 69/69/69 68/68/68 67/67/67
f 72/72/72 71/71/71 70/70/70
f 75/75/75 74/74/74 73/73/73
f 78/78/78 77/77/77 76/76/76
f 81/81/81 80/80/80 79/79/79
f 84/84/84 83/83/83 82/82/82
f 87/87/87 86/86/86 85/85/85
f 90/90/90 89/89/89 88/88/88
f 93/93/93 92/92/92 91/91/91
f 96/96/96 95/95/95 94/94/94
f 99/99/99 98/98/98 97/97/97
f 102/102/102 101/101/101 100/100/100
f 105/105/105 104/104/104 103/103/103
f 108/108/108 107/107/107 106/106/106
f 111/111/111 110/110/110 109/109/109
f 114/114/114 113/113/113 112/112/112
f 117/117/117 116/116/116 115/115/115
f 120/120/120 119/119/119 118/118/118
f 123/123/123 122/122/122 121/121/121
f 126/126/126 125/125/125 124/124/124
f 129/129/129 128/128/128 127/127/127
f 132/132/132 131/131/131 130/130/130
f 135/135/135 134/134/134 133/133/133
f 138/138/138 137/137/137 136/136/136
f 141/141/141 140/140/140 139/139/139
f 144/144/144 143/143/143 142/142/142
f 147/147/147 146/146/146 145/145/145
f 150/150/150 149/149/149 148/148/148
f 153/153/153 152/152/152 151/151/151
f 156/156/156 155/155/155 154/154/154
f 159/159/159 158/158/158 157/157/157
f 162/162/162 161/161/161 160/160/160
f 165/165/165 164/164/164 163/163/163
f 168/168/168 167/167/167 166/166/166
f 171/171/171 170/170/170 169/169/169
f 174/174/174 173/173/173 172/172/172
f 177/177/177 176/176/176 175/175/175
f 180/180/180 179/179/179 178/178/178
f 183/183/183 182/182/182 181/181/181
f 186/186/186 185/185/185 184/184/184
f 189/189/189 188/188/188 187/187/187
f 192/192/192 191/191/191 190/190/190
f 195/195/195 194/194/194 193/193/193
f 198/198/198 197/197/197 196/196/196
f 201/201/201 200/200/200 199/199/199
f 204/204/204 203/203/203 202/202/202
f 207/207/207 206/206/206 205/205/205
f 210/210/210 209/209/209 208/208/208
f 213/213/213 212/212/212 211/211/211
f 216/216/216 215/215/215 214/214/214
f 219/219/219 218/218/218 217/217/217
f 222/222/222 221/221/221 220/220/220
f 225/225/225 224/224/224 223/223/223
f 228/228/228 227/227/227 226/226/226
f 231/231/231 230/230/230 229/229/229
f 234/234/234 233/233/233 232/232/232
f 237/237/237 236/236/236 235/235/235
f 240/240/240 239/239/239 238/238/238
