g Cloud002
v -5.132569 -0.7343309 2.837416
v -4.611242 0.8701483 1.794762
v -3.44552 -0.7343309 1.794762
v -5.132569 -0.7343309 2.837416
v -6.497421 0.2572917 1.794762
v -4.611242 0.8701483 1.794762
v -5.132569 -0.7343309 2.837416
v -6.497421 -1.725954 1.794762
v -6.497421 0.2572917 1.794762
v -5.132569 -0.7343309 2.837416
v -4.611242 -2.33881 1.794762
v -6.497421 -1.725954 1.794762
v -5.132569 -0.7343309 2.837416
v -3.44552 -0.7343309 1.794762
v -4.611242 -2.33881 1.794762
v -3.44552 -0.7343309 1.794762
v -3.767718 0.2572918 0.1077127
v -3.767718 -1.725954 0.1077127
v -4.611242 0.8701483 1.794762
v -5.653896 0.8701483 0.1077127
v -3.767718 0.2572918 0.1077127
v -6.497421 0.2572917 1.794762
v -6.819619 -0.734331 0.1077127
v -5.653896 0.8701483 0.1077127
v -6.497421 -1.725954 1.794762
v -5.653895 -2.33881 0.1077127
v -6.819619 -0.734331 0.1077127
v -4.611242 -2.33881 1.794762
v -3.767718 -1.725954 0.1077127
v -5.653895 -2.33881 0.1077127
v -3.767718 0.2572918 0.1077127
v -3.44552 -0.7343309 1.794762
v -4.611242 0.8701483 1.794762
v -5.653896 0.8701483 0.1077127
v -4.611242 0.8701483 1.794762
v -6.497421 0.2572917 1.794762
v -6.819619 -0.734331 0.1077127
v -6.497421 0.2572917 1.794762
v -6.497421 -1.725954 1.794762
v -5.653895 -2.33881 0.1077127
v -6.497421 -1.725954 1.794762
v -4.611242 -2.33881 1.794762
v -3.767718 -1.725954 0.1077127
v -4.611242 -2.33881 1.794762
v -3.44552 -0.7343309 1.794762
v -5.132569 -0.7343309 -0.9349412
v -3.767718 0.2572918 0.1077127
v -5.653896 0.8701483 0.1077127
v -5.132569 -0.7343309 -0.9349412
v -5.653896 0.8701483 0.1077127
v -6.819619 -0.734331 0.1077127
v -5.132569 -0.7343309 -0.9349412
v -6.819619 -0.734331 0.1077127
v -5.653895 -2.33881 0.1077127
v -5.132569 -0.7343309 -0.9349412
v -5.653895 -2.33881 0.1077127
v -3.767718 -1.725954 0.1077127
v -5.132569 -0.7343309 -0.9349412
v -3.767718 -1.725954 0.1077127
v -3.767718 0.2572918 0.1077127
v -2.782711 -1.874437 1.804793
v -1.507649 0.4837489 1.405406
v -0.1586967 -1.850513 1.12633
v -2.782711 -1.874437 1.804793
v -4.016996 0.1206765 0.4474453
v -1.507649 0.4837489 1.405406
v -2.782711 -1.874437 1.804793
v -4.218905 -2.437976 -0.4236816
v -4.016996 0.1206765 0.4474453
v -2.782711 -1.874437 1.804793
v -1.834345 -3.656237 -0.004107475
v -4.218905 -2.437976 -0.4236816
v -2.782711 -1.874437 1.804793
v -0.1586967 -1.850513 1.12633
v -1.834345 -3.656237 -0.004107475
v -0.1586967 -1.850513 1.12633
v 0.2287474 0.1593866 -0.6503299
v 0.02683735 -2.399266 -1.521457
v -1.507649 0.4837489 1.405406
v -2.155813 1.377649 -1.069904
v 0.2287474 0.1593866 -0.6503299
v -4.016996 0.1206765 0.4474453
v -3.831462 -0.4280763 -2.200342
v -2.155813 1.377649 -1.069904
v -4.218905 -2.437976 -0.4236816
v -2.482509 -2.762338 -2.479417
v -3.831462 -0.4280763 -2.200342
v -1.834345 -3.656237 -0.004107475
v 0.02683735 -2.399266 -1.521457
v -2.482509 -2.762338 -2.479417
v 0.2287474 0.1593866 -0.6503299
v -0.1586967 -1.850513 1.12633
v -1.507649 0.4837489 1.405406
v -2.155813 1.377649 -1.069904
v -1.507649 0.4837489 1.405406
v -4.016996 0.1206765 0.4474453
v -3.831462 -0.4280763 -2.200342
v -4.016996 0.1206765 0.4474453
v -4.218905 -2.437976 -0.4236816
v -2.482509 -2.762338 -2.479417
v -4.218905 -2.437976 -0.4236816
v -1.834345 -3.656237 -0.004107475
v 0.02683735 -2.399266 -1.521457
v -1.834345 -3.656237 -0.004107475
v -0.1586967 -1.850513 1.12633
v -1.207448 -0.4041519 -2.878805
v 0.2287474 0.1593866 -0.6503299
v -2.155813 1.377649 -1.069904
v -1.207448 -0.4041519 -2.878805
v -2.155813 1.377649 -1.069904
v -3.831462 -0.4280763 -2.200342
v -1.207448 -0.4041519 -2.878805
v -3.831462 -0.4280763 -2.200342
v -2.482509 -2.762338 -2.479417
v -1.207448 -0.4041519 -2.878805
v -2.482509 -2.762338 -2.479417
v 0.02683735 -2.399266 -1.521457
v -1.207448 -0.4041519 -2.878805
v 0.02683735 -2.399266 -1.521457
v 0.2287474 0.1593866 -0.6503299
v -0.6989679 0.2966396 3.231059
v 1.935357 2.731678 3.179267
v 2.718745 -0.7512699 3.535833
v -0.6989679 0.2966396 3.231059
v -0.8196459 3.020629 0.8993036
v 1.935357 2.731678 3.179267
v -0.6989679 0.2966396 3.231059
v -1.738942 -0.283738 -0.1532252
v -0.8196459 3.020629 0.8993036
v -0.6989679 0.2966396 3.231059
v 0.4479032 -2.6149 1.47624
v -1.738942 -0.283738 -0.1532252
v -0.6989679 0.2966396 3.231059
v 2.718745 -0.7512699 3.535833
v 0.4479032 -2.6149 1.47624
v 2.718745 -0.7512699 3.535833
v 4.71033 1.325076 1.392439
v 3.791033 -1.979291 0.3399091
v 1.935357 2.731678 3.179267
v 2.523485 3.656238 -0.2370263
v 4.71033 1.325076 1.392439
v -0.8196459 3.020629 0.8993036
v 0.2526426 1.792608 -2.29662
v 2.523485 3.656238 -0.2370263
v -1.738942 -0.283738 -0.1532252
v 1.036032 -1.69034 -1.940053
v 0.2526426 1.792608 -2.29662
v 0.4479032 -2.6149 1.47624
v 3.791033 -1.979291 0.3399091
v 1.036032 -1.69034 -1.940053
v 4.71033 1.325076 1.392439
v 2.718745 -0.7512699 3.535833
v 1.935357 2.731678 3.179267
v 2.523485 3.656238 -0.2370263
v 1.935357 2.731678 3.179267
v -0.8196459 3.020629 0.8993036
v 0.2526426 1.792608 -2.29662
v -0.8196459 3.020629 0.8993036
v -1.738942 -0.283738 -0.1532252
v 1.036032 -1.69034 -1.940053
v -1.738942 -0.283738 -0.1532252
v 0.4479032 -2.6149 1.47624
v 3.791033 -1.979291 0.3399091
v 0.4479032 -2.6149 1.47624
v 2.718745 -0.7512699 3.535833
v 3.670356 0.7446989 -1.991846
v 4.71033 1.325076 1.392439
v 2.523485 3.656238 -0.2370263
v 3.670356 0.7446989 -1.991846
v 2.523485 3.656238 -0.2370263
v 0.2526426 1.792608 -2.29662
v 3.670356 0.7446989 -1.991846
v 0.2526426 1.792608 -2.29662
v 1.036032 -1.69034 -1.940053
v 3.670356 0.7446989 -1.991846
v 1.036032 -1.69034 -1.940053
v 3.791033 -1.979291 0.3399091
v 3.670356 0.7446989 -1.991846
v 3.791033 -1.979291 0.3399091
v 4.71033 1.325076 1.392439
v 6.810839 -0.7227764 -2.365214
v 6.819619 0.4949808 -0.4100488
v 6.036051 1.446394 -2.355946
v 6.810839 -0.7227764 -2.365214
v 6.171779 -1.715328 -0.387305
v 6.819619 0.4949808 -0.4100488
v 6.810839 -0.7227764 -2.365214
v 4.987823 -2.129961 -2.319146
v 6.171779 -1.715328 -0.387305
v 6.810839 -0.7227764 -2.365214
v 4.903938 -0.1759096 -3.535833
v 4.987823 -2.129961 -2.319146
v 6.810839 -0.7227764 -2.365214
v 6.036051 1.446394 -2.355946
v 4.903938 -0.1759096 -3.535833
v 6.036051 1.446394 -2.355946
v 4.918145 1.794463 -0.3723089
v 3.734189 1.379829 -2.30415
v 6.819619 0.4949808 -0.4100488
v 5.002029 -0.1595885 0.8443781
v 4.918145 1.794463 -0.3723089
v 6.171779 -1.715328 -0.387305
v 3.869917 -1.781892 -0.3355086
v 5.002029 -0.1595885 0.8443781
v 4.987823 -2.129961 -2.319146
v 3.086349 -0.8304787 -2.281406
v 3.869917 -1.781892 -0.3355086
v 4.903938 -0.1759096 -3.535833
v 3.734189 1.379829 -2.30415
v 3.086349 -0.8304787 -2.281406
v 4.918145 1.794463 -0.3723089
v 6.036051 1.446394 -2.355946
v 6.819619 0.4949808 -0.4100488
v 5.002029 -0.1595885 0.8443781
v 6.819619 0.4949808 -0.4100488
v 6.171779 -1.715328 -0.387305
v 3.869917 -1.781892 -0.3355086
v 6.171779 -1.715328 -0.387305
v 4.987823 -2.129961 -2.319146
v 3.086349 -0.8304787 -2.281406
v 4.987823 -2.129961 -2.319146
v 4.903938 -0.1759096 -3.535833
v 3.734189 1.379829 -2.30415
v 4.903938 -0.1759096 -3.535833
v 6.036051 1.446394 -2.355946
v 3.095129 0.3872781 -0.3262403
v 4.918145 1.794463 -0.3723089
v 5.002029 -0.1595885 0.8443781
v 3.095129 0.3872781 -0.3262403
v 5.002029 -0.1595885 0.8443781
v 3.869917 -1.781892 -0.3355086
v 3.095129 0.3872781 -0.3262403
v 3.869917 -1.781892 -0.3355086
v 3.086349 -0.8304787 -2.281406
v 3.095129 0.3872781 -0.3262403
v 3.086349 -0.8304787 -2.281406
v 3.734189 1.379829 -2.30415
v 3.095129 0.3872781 -0.3262403
v 3.734189 1.379829 -2.30415
v 4.918145 1.794463 -0.3723089
vt 0.6 1
vt 0.6999999 0.6475835
vt 0.5 0.6475835
vt 0.8 1
vt 0.9 0.6475835
vt 0.6999999 0.6475835
vt 3.72529E-08 1
vt 0.1 0.6475835
vt -0.09999996 0.6475835
vt 0.2 1
vt 0.3 0.6475835
vt 0.1 0.6475835
vt 0.4 1
vt 0.5 0.6475835
vt 0.3 0.6475835
vt 0.5 0.6475835
vt 0.6 0.3524164
vt 0.4 0.3524164
vt 0.6999999 0.6475835
vt 0.8 0.3524164
vt 0.6 0.3524164
vt -0.09999996 0.6475835
vt 3.794549E-08 0.3524164
vt -0.2 0.3524164
vt 0.1 0.6475835
vt 0.2 0.3524164
vt 3.794549E-08 0.3524164
vt 0.3 0.6475835
vt 0.4 0.3524164
vt 0.2 0.3524164
vt 0.6 0.3524164
vt 0.5 0.6475835
vt 0.6999999 0.6475835
vt 0.8 0.3524164
vt 0.6999999 0.6475835
vt 0.9 0.6475835
vt 3.794549E-08 0.3524164
vt -0.09999996 0.6475835
vt 0.1 0.6475835
vt 0.2 0.3524164
vt 0.1 0.6475835
vt 0.3 0.6475835
vt 0.4 0.3524164
vt 0.3 0.6475835
vt 0.5 0.6475835
vt 0.7 0
vt 0.6 0.3524164
vt 0.8 0.3524164
vt -0.09999997 0
vt -0.2 0.3524164
vt 3.794549E-08 0.3524164
vt 0.1 0
vt 3.794549E-08 0.3524164
vt 0.2 0.3524164
vt 0.3 0
vt 0.2 0.3524164
vt 0.4 0.3524164
vt 0.5 0
vt 0.4 0.3524164
vt 0.6 0.3524164
vt 0.6 1
vt 0.6999999 0.6475835
vt 0.5 0.6475835
vt 0.8 1
vt 0.9 0.6475835
vt 0.6999999 0.6475835
vt 3.72529E-08 1
vt 0.1 0.6475835
vt -0.09999996 0.6475835
vt 0.2 1
vt 0.3 0.6475837
vt 0.1 0.6475835
vt 0.4 1
vt 0.5 0.6475835
vt 0.3 0.6475837
vt 0.5 0.6475835
vt 0.6 0.3524164
vt 0.4 0.3524164
vt 0.6999999 0.6475835
vt 0.8 0.3524164
vt 0.6 0.3524164
vt -0.09999996 0.6475835
vt 3.794549E-08 0.3524164
vt -0.2 0.3524164
vt 0.1 0.6475835
vt 0.2 0.3524164
vt 3.794549E-08 0.3524164
vt 0.3 0.6475837
vt 0.4 0.3524164
vt 0.2 0.3524164
vt 0.6 0.3524164
vt 0.5 0.6475835
vt 0.6999999 0.6475835
vt 0.8 0.3524164
vt 0.6999999 0.6475835
vt 0.9 0.6475835
vt 3.794549E-08 0.3524164
vt -0.09999996 0.6475835
vt 0.1 0.6475835
vt 0.2 0.3524164
vt 0.1 0.6475835
vt 0.3 0.6475837
vt 0.4 0.3524164
vt 0.3 0.6475837
vt 0.5 0.6475835
vt 0.7 0
vt 0.6 0.3524164
vt 0.8 0.3524164
vt -0.09999997 0
vt -0.2 0.3524164
vt 3.794549E-08 0.3524164
vt 0.1 0
vt 3.794549E-08 0.3524164
vt 0.2 0.3524164
vt 0.3 0
vt 0.2 0.3524164
vt 0.4 0.3524164
vt 0.5 0
vt 0.4 0.3524164
vt 0.6 0.3524164
vt 0.6 1
vt 0.6999999 0.6475837
vt 0.5 0.6475837
vt 0.8 1
vt 0.9 0.6475837
vt 0.6999999 0.6475837
vt 3.72529E-08 1
vt 0.1 0.6475837
vt -0.09999996 0.6475837
vt 0.2 1
vt 0.3 0.6475837
vt 0.1 0.6475837
vt 0.4 1
vt 0.5 0.6475837
vt 0.3 0.6475837
vt 0.5 0.6475837
vt 0.6 0.3524164
vt 0.4 0.3524164
vt 0.6999999 0.6475837
vt 0.8 0.3524164
vt 0.6 0.3524164
vt -0.09999996 0.6475837
vt 3.794549E-08 0.3524164
vt -0.2 0.3524164
vt 0.1 0.6475837
vt 0.2 0.3524164
vt 3.794549E-08 0.3524164
vt 0.3 0.6475837
vt 0.4 0.3524164
vt 0.2 0.3524164
vt 0.6 0.3524164
vt 0.5 0.6475837
vt 0.6999999 0.6475837
vt 0.8 0.3524164
vt 0.6999999 0.6475837
vt 0.9 0.6475837
vt 3.794549E-08 0.3524164
vt -0.09999996 0.6475837
vt 0.1 0.6475837
vt 0.2 0.3524164
vt 0.1 0.6475837
vt 0.3 0.6475837
vt 0.4 0.3524164
vt 0.3 0.6475837
vt 0.5 0.6475837
vt 0.7 0
vt 0.6 0.3524164
vt 0.8 0.3524164
vt -0.09999997 0
vt -0.2 0.3524164
vt 3.794549E-08 0.3524164
vt 0.1 0
vt 3.794549E-08 0.3524164
vt 0.2 0.3524164
vt 0.3 0
vt 0.2 0.3524164
vt 0.4 0.3524164
vt 0.5 0
vt 0.4 0.3524164
vt 0.6 0.3524164
vt 0.6 1
vt 0.6999999 0.6475835
vt 0.5 0.6475835
vt 0.8 1
vt 0.9 0.6475835
vt 0.6999999 0.6475835
vt 3.72529E-08 1
vt 0.1 0.6475835
vt -0.09999996 0.6475835
vt 0.2 1
vt 0.3 0.6475835
vt 0.1 0.6475835
vt 0.4 1
vt 0.5 0.6475835
vt 0.3 0.6475835
vt 0.5 0.6475835
vt 0.6 0.3524164
vt 0.4 0.3524164
vt 0.6999999 0.6475835
vt 0.8 0.3524164
vt 0.6 0.3524164
vt -0.09999996 0.6475835
vt 3.794549E-08 0.3524164
vt -0.2 0.3524164
vt 0.1 0.6475835
vt 0.2 0.3524164
vt 3.794549E-08 0.3524164
vt 0.3 0.6475835
vt 0.4 0.3524164
vt 0.2 0.3524164
vt 0.6 0.3524164
vt 0.5 0.6475835
vt 0.6999999 0.6475835
vt 0.8 0.3524164
vt 0.6999999 0.6475835
vt 0.9 0.6475835
vt 3.794549E-08 0.3524164
vt -0.09999996 0.6475835
vt 0.1 0.6475835
vt 0.2 0.3524164
vt 0.1 0.6475835
vt 0.3 0.6475835
vt 0.4 0.3524164
vt 0.3 0.6475835
vt 0.5 0.6475835
vt 0.7 0
vt 0.6 0.3524164
vt 0.8 0.3524164
vt -0.09999997 0
vt -0.2 0.3524164
vt 3.794549E-08 0.3524164
vt 0.1 0
vt 3.794549E-08 0.3524164
vt 0.2 0.3524164
vt 0.3 0
vt 0.2 0.3524164
vt 0.4 0.3524164
vt 0.5 0
vt 0.4 0.3524164
vt 0.6 0.3524164
vn 0.4911234 0.3568221 0.7946545
vn 0.4911234 0.356822 0.7946545
vn 0.4911234 0.3568221 0.7946545
vn -0.1875925 0.5773503 0.7946545
vn -0.1875925 0.5773503 0.7946545
vn -0.1875925 0.5773503 0.7946545
vn -0.607062 0 0.7946545
vn -0.607062 0 0.7946545
vn -0.607062 0 0.7946545
vn -0.1875924 -0.5773503 0.7946545
vn -0.1875924 -0.5773503 0.7946545
vn -0.1875924 -0.5773503 0.7946545
vn 0.4911234 -0.356822 0.7946545
vn 0.4911234 -0.356822 0.7946545
vn 0.4911234 -0.356822 0.7946545
vn 0.9822469 0 -0.1875925
vn 0.9822469 0 -0.1875925
vn 0.9822469 0 -0.1875925
vn 0.3035309 0.9341723 -0.1875924
vn 0.3035309 0.9341723 -0.1875924
vn 0.3035309 0.9341723 -0.1875924
vn -0.7946545 0.5773501 -0.1875925
vn -0.7946545 0.5773502 -0.1875925
vn -0.7946545 0.5773501 -0.1875925
vn -0.7946543 -0.5773505 -0.1875926
vn -0.7946543 -0.5773504 -0.1875926
vn -0.7946543 -0.5773505 -0.1875926
vn 0.3035311 -0.9341723 -0.1875924
vn 0.3035311 -0.9341723 -0.1875924
vn 0.3035311 -0.9341723 -0.1875924
vn 0.7946544 0.5773503 0.1875925
vn 0.7946544 0.5773503 0.1875925
vn 0.7946544 0.5773503 0.1875925
vn -0.303531 0.9341723 0.1875925
vn -0.303531 0.9341723 0.1875925
vn -0.303531 0.9341723 0.1875925
vn -0.9822469 0 0.1875925
vn -0.9822469 0 0.1875925
vn -0.9822469 0 0.1875925
vn -0.3035309 -0.9341725 0.1875924
vn -0.3035309 -0.9341725 0.1875924
vn -0.3035309 -0.9341725 0.1875924
vn 0.7946545 -0.5773502 0.1875924
vn 0.7946545 -0.5773503 0.1875924
vn 0.7946545 -0.5773502 0.1875924
vn 0.1875924 0.5773503 -0.7946545
vn 0.1875924 0.5773503 -0.7946545
vn 0.1875924 0.5773503 -0.7946545
vn -0.4911236 0.3568221 -0.7946545
vn -0.4911236 0.3568221 -0.7946545
vn -0.4911235 0.356822 -0.7946545
vn -0.4911234 -0.3568223 -0.7946545
vn -0.4911234 -0.3568223 -0.7946545
vn -0.4911234 -0.3568223 -0.7946545
vn 0.1875925 -0.5773503 -0.7946545
vn 0.1875925 -0.5773503 -0.7946545
vn 0.1875925 -0.5773503 -0.7946545
vn 0.607062 0 -0.7946545
vn 0.607062 0 -0.7946545
vn 0.607062 0 -0.7946545
vn 0.2499777 0.02875094 0.9678247
vn 0.2499777 0.02875094 0.9678247
vn 0.2499777 0.02875094 0.9678247
vn -0.3778706 0.3495162 0.8573518
vn -0.3778706 0.3495162 0.8573518
vn -0.3778707 0.3495162 0.8573518
vn -0.8190645 -0.1259265 0.5597104
vn -0.8190645 -0.1259265 0.5597105
vn -0.8190645 -0.1259265 0.5597105
vn -0.4638888 -0.7405314 0.4862307
vn -0.4638888 -0.7405314 0.4862307
vn -0.4638888 -0.7405314 0.4862307
vn 0.1968154 -0.6449354 0.7384592
vn 0.1968155 -0.6449354 0.7384592
vn 0.1968155 -0.6449354 0.7384592
vn 0.9897243 -0.1094352 0.09203168
vn 0.9897243 -0.1094352 0.09203168
vn 0.9897243 -0.1094352 0.09203168
vn 0.4150382 0.8850166 0.2109244
vn 0.4150382 0.8850166 0.2109244
vn 0.4150382 0.8850166 0.2109244
vn -0.6540039 0.7303391 -0.1971895
vn -0.6540039 0.7303391 -0.1971895
vn -0.6540039 0.7303391 -0.1971895
vn -0.7400221 -0.3597085 -0.5683106
vn -0.7400221 -0.3597085 -0.5683106
vn -0.7400221 -0.3597085 -0.5683106
vn 0.2758577 -0.8787173 -0.3895618
vn 0.2758577 -0.8787173 -0.3895618
vn 0.2758577 -0.8787173 -0.3895618
vn 0.7400223 0.3597084 0.5683105
vn 0.7400223 0.3597084 0.5683105
vn 0.7400224 0.3597084 0.5683105
vn -0.2758577 0.8787173 0.3895618
vn -0.2758577 0.8787173 0.3895618
vn -0.2758577 0.8787173 0.3895618
vn -0.9897243 0.1094349 -0.09203187
vn -0.9897243 0.1094349 -0.09203187
vn -0.9897243 0.1094349 -0.09203187
vn -0.4150381 -0.8850166 -0.2109245
vn -0.4150381 -0.8850166 -0.2109246
vn -0.4150381 -0.8850166 -0.2109245
vn 0.6540039 -0.7303391 0.1971893
vn 0.654004 -0.7303391 0.1971894
vn 0.654004 -0.7303391 0.1971894
vn 0.4638889 0.7405315 -0.4862307
vn 0.4638889 0.7405315 -0.4862307
vn 0.4638889 0.7405315 -0.4862307
vn -0.1968155 0.6449355 -0.7384592
vn -0.1968155 0.6449355 -0.7384592
vn -0.1968155 0.6449355 -0.7384592
vn -0.2499777 -0.02875111 -0.9678246
vn -0.2499777 -0.02875111 -0.9678246
vn -0.2499777 -0.02875111 -0.9678246
vn 0.3778707 -0.3495162 -0.8573519
vn 0.3778707 -0.3495162 -0.8573519
vn 0.3778707 -0.3495162 -0.8573519
vn 0.8190645 0.1259263 -0.5597105
vn 0.8190645 0.1259263 -0.5597105
vn 0.8190646 0.1259263 -0.5597104
vn -0.06170679 0.08790347 0.9942159
vn -0.06170679 0.08790347 0.9942159
vn -0.06170679 0.08790347 0.9942159
vn -0.4966983 0.5516014 0.6700945
vn -0.4966983 0.5516014 0.6700946
vn -0.4966983 0.5516014 0.6700945
vn -0.9483979 0.1809014 0.260415
vn -0.9483979 0.1809014 0.260415
vn -0.9483979 0.1809014 0.260415
vn -0.7925721 -0.5119014 0.3313406
vn -0.7925721 -0.5119014 0.3313406
vn -0.7925721 -0.5119014 0.3313406
vn -0.2445668 -0.5693774 0.7848544
vn -0.2445668 -0.5693774 0.7848544
vn -0.2445668 -0.5693774 0.7848544
vn 0.8314118 -0.3648082 0.4191291
vn 0.8314118 -0.3648082 0.4191291
vn 0.831412 -0.3648083 0.4191291
vn 0.5792802 0.7561704 0.3043694
vn 0.5792802 0.7561704 0.3043694
vn 0.5792802 0.7561704 0.3043694
vn -0.3074109 0.8491685 -0.4294314
vn -0.3074109 0.8491685 -0.4294314
vn -0.3074109 0.8491685 -0.4294314
vn -0.6032844 -0.2143345 -0.7681854
vn -0.6032844 -0.2143345 -0.7681854
vn -0.6032844 -0.2143345 -0.7681854
vn 0.1005467 -0.9646131 -0.2437459
vn 0.1005467 -0.9646131 -0.2437459
vn 0.1005467 -0.9646131 -0.2437459
vn 0.6032845 0.2143342 0.7681853
vn 0.6032845 0.2143342 0.7681853
vn 0.6032845 0.2143342 0.7681853
vn -0.1005466 0.964613 0.2437461
vn -0.1005466 0.9646131 0.2437461
vn -0.1005466 0.9646131 0.2437461
vn -0.8314118 0.3648081 -0.4191293
vn -0.8314118 0.3648081 -0.4191293
vn -0.8314118 0.3648081 -0.4191293
vn -0.57928 -0.7561705 -0.3043696
vn -0.57928 -0.7561705 -0.3043695
vn -0.57928 -0.7561705 -0.3043696
vn 0.3074111 -0.8491685 0.4294313
vn 0.3074111 -0.8491685 0.4294313
vn 0.3074111 -0.8491685 0.4294313
vn 0.7925721 0.5119013 -0.3313405
vn 0.7925721 0.5119013 -0.3313405
vn 0.7925721 0.5119013 -0.3313405
vn 0.2445667 0.5693774 -0.7848544
vn 0.2445667 0.5693774 -0.7848544
vn 0.2445667 0.5693774 -0.7848544
vn 0.06170681 -0.08790364 -0.9942159
vn 0.06170681 -0.08790364 -0.9942159
vn 0.06170681 -0.08790363 -0.9942159
vn 0.4966984 -0.5516013 -0.6700945
vn 0.4966985 -0.5516013 -0.6700945
vn 0.4966985 -0.5516013 -0.6700945
vn 0.9483979 -0.1809016 -0.2604149
vn 0.9483979 -0.1809016 -0.2604149
vn 0.9483979 -0.1809016 -0.2604149
vn 0.9205514 0.3296992 -0.2094843
vn 0.9205514 0.3296992 -0.2094843
vn 0.9205514 0.3296992 -0.2094843
vn 0.9465405 -0.2757074 0.167471
vn 0.9465405 -0.2757074 0.167471
vn 0.9465405 -0.2757074 0.167471
vn 0.5957878 -0.7783315 -0.1980828
vn 0.5957879 -0.7783315 -0.1980829
vn 0.5957879 -0.7783315 -0.1980828
vn 0.3530217 -0.4835636 -0.800963
vn 0.3530217 -0.4835636 -0.800963
vn 0.3530217 -0.4835636 -0.800963
vn 0.5537367 0.2012369 -0.8080096
vn 0.5537366 0.2012369 -0.8080096
vn 0.5537367 0.2012369 -0.8080096
vn -0.03266005 0.9811311 -0.1905653
vn -0.03266005 0.9811311 -0.1905652
vn -0.03266005 0.9811311 -0.1905653
vn 0.3601439 0.5041867 0.7849154
vn 0.3601439 0.5041867 0.7849154
vn 0.3601439 0.5041867 0.7849154
vn 0.03538037 -0.603844 0.7963169
vn 0.03538036 -0.603844 0.7963169
vn 0.03538037 -0.603844 0.7963169
vn -0.5581385 -0.8117001 -0.1721173
vn -0.5581386 -0.8117001 -0.1721173
vn -0.5581386 -0.8117001 -0.1721173
vn -0.6001895 0.1678681 -0.782044
vn -0.6001895 0.1678681 -0.782044
vn -0.6001895 0.1678681 -0.782044
vn 0.5581384 0.8117002 0.1721172
vn 0.5581384 0.8117002 0.1721172
vn 0.5581384 0.8117002 0.1721172
vn 0.6001896 -0.1678682 0.782044
vn 0.6001896 -0.1678682 0.782044
vn 0.6001896 -0.1678682 0.782044
vn 0.03265994 -0.9811311 0.1905652
vn 0.03265994 -0.9811311 0.1905652
vn 0.03265994 -0.9811311 0.1905652
vn -0.360144 -0.5041866 -0.7849154
vn -0.360144 -0.5041866 -0.7849154
vn -0.360144 -0.5041866 -0.7849154
vn -0.03538043 0.6038441 -0.7963169
vn -0.03538042 0.6038442 -0.7963168
vn -0.03538043 0.603844 -0.7963169
vn -0.3530217 0.4835638 0.800963
vn -0.3530217 0.4835638 0.800963
vn -0.3530217 0.4835638 0.800963
vn -0.5537366 -0.201237 0.8080096
vn -0.5537366 -0.201237 0.8080096
vn -0.5537366 -0.201237 0.8080096
vn -0.9205514 -0.3296992 0.2094842
vn -0.9205514 -0.3296992 0.2094842
vn -0.9205514 -0.3296992 0.2094842
vn -0.9465405 0.2757074 -0.167471
vn -0.9465405 0.2757074 -0.167471
vn -0.9465405 0.2757074 -0.167471
vn -0.5957879 0.7783315 0.1980827
vn -0.5957879 0.7783315 0.1980827
vn -0.5957879 0.7783315 0.1980828
g Cloud002_0
f 3/3/3 2/2/2 1/1/1
f 6/6/6 5/5/5 4/4/4
f 9/9/9 8/8/8 7/7/7
f 12/12/12 11/11/11 10/10/10
f 15/15/15 14/14/14 13/13/13
f 18/18/18 17/17/17 16/16/16
f 21/21/21 20/20/20 19/19/19
f 24/24/24 23/23/23 22/22/22
f 27/27/27 26/26/26 25/25/25
f 30/30/30 29/29/29 28/28/28
f 33/33/33 32/32/32 31/31/31
f 36/36/36 35/35/35 34/34/34
f 39/39/39 38/38/38 37/37/37
f 42/42/42 41/41/41 40/40/40
f 45/45/45 44/44/44 43/43/43
f 48/48/48 47/47/47 46/46/46
f 51/51/51 50/50/50 49/49/49
f 54/54/54 53/53/53 52/52/52
f 57/57/57 56/56/56 55/55/55
f 60/60/60 59/59/59 58/58/58
f 63/63/63 62/62/62 61/61/61
f 66/66/66 65/65/65 64/64/64
f 69/69/69 68/68/68 67/67/67
f 72/72/72 71/71/71 70/70/70
f 75/75/75 74/74/74 73/73/73
f 78/78/78 77/77/77 76/76/76
f 81/81/81 80/80/80 79/79/79
f 84/84/84 83/83/83 82/82/82
f 87/87/87 86/86/86 85/85/85
f 90/90/90 89/89/89 88/88/88
f 93/93/93 92/92/92 91/91/91
f 96/96/96 95/95/95 94/94/94
f 99/99/99 98/98/98 97/97/97
f 102/102/102 101/101/101 100/100/100
f 105/105/105 104/104/104 103/103/103
f 108/108/108 107/107/107 106/106/106
f 111/111/111 110/110/110 109/109/109
f 114/114/114 113/113/113 112/112/112
f 117/117/117 116/116/116 115/115/115
f 120/120/120 119/119/119 118/118/118
f 123/123/123 122/122/122 121/121/121
f 126/126/126 125/125/125 124/124/124
f 129/129/129 128/128/128 127/127/127
f 132/132/132 131/131/131 130/130/130
f 135/135/135 134/134/134 133/133/133
f 138/138/138 137/137/137 136/136/136
f 141/141/141 140/140/140 139/139/139
f 144/144/144 143/143/143 142/142/142
f 147/147/147 146/146/146 145/145/145
f 150/150/150 149/149/149 148/148/148
f 153/153/153 152/152/152 151/151/151
f 156/156/156 155/155/155 154/154/154
f 159/159/159 158/158/158 157/157/157
f 162/162/162 161/161/161 160/160/160
f 165/165/165 164/164/164 163/163/163
f 168/168/168 167/167/167 166/166/166
f 171/171/171 170/170/170 169/169/169
f 174/174/174 173/173/173 172/172/172
f 177/177/177 176/176/176 175/175/175
f 180/180/180 179/179/179 178/178/178
f 183/183/183 182/182/182 181/181/181
f 186/186/186 185/185/185 184/184/184
f 189/189/189 188/188/188 187/187/187
f 192/192/192 191/191/191 190/190/190
f 195/195/195 194/194/194 193/193/193
f 198/198/198 197/197/197 196/196/196
f 201/201/201 200/200/200 199/199/199
f 204/204/204 203/203/203 202/202/202
f 207/207/207 206/206/206 205/205/205
f 210/210/210 209/209/209 208/208/208
f 213/213/213 212/212/212 211/211/211
f 216/216/216 215/215/215 214/214/214
f 219/219/219 218/218/218 217/217/217
f 222/222/222 221/221/221 220/220/220
f 225/225/225 224/224/224 223/223/223
f 228/228/228 227/227/227 226/226/226
f 231/231/231 230/230/230 229/229/229
f 234/234/234 233/233/233 232/232/232
f 237/237/237 236/236/236 235/235/235
f 240/240/240 239/239/239 238/238/238
